<svg width="1154" height="1154" viewBox="0 0 1154 1154" fill="none" xmlns="http://www.w3.org/2000/svg">
<path opacity="0.5" d="M484.226 924.602L483.976 924.169L483.543 924.419L381.76 983.183C260.205 1053.36 104.772 1011.72 34.5916 890.159C-35.5887 768.604 6.05918 613.171 127.615 542.991L229.398 484.226L229.831 483.976L229.581 483.543L170.817 381.76C100.636 260.205 142.285 104.772 263.84 34.5916C385.396 -35.5887 540.829 6.05918 611.009 127.615L669.774 229.398L670.024 229.831L670.457 229.581L772.24 170.817C893.795 100.636 1049.23 142.284 1119.41 263.84C1189.59 385.396 1147.94 540.829 1026.39 611.009L924.602 669.774L924.169 670.024L924.419 670.457L983.183 772.24C1053.36 893.795 1011.72 1049.23 890.16 1119.41C768.604 1189.59 613.171 1147.94 542.991 1026.39L484.226 924.602Z" stroke="#D8D6D6"/>
</svg>
