<svg width="107" height="108" viewBox="0 0 107 108" fill="none" xmlns="http://www.w3.org/2000/svg">
<path d="M68.9261 80.844L69.0331 80.4449L69.4321 80.5519L79.2542 83.1837C90.787 86.2739 102.641 79.4298 105.732 67.8969C108.822 56.3641 101.978 44.5098 90.4448 41.4196L80.6228 38.7878L80.2237 38.6809L80.3306 38.2818L82.9624 28.4598C86.0527 16.927 79.2086 5.07266 67.6757 1.98245C56.1429 -1.10776 44.2886 5.73631 41.1984 17.2691L38.5666 27.0912L38.4597 27.4902L38.0606 27.3833L28.2386 24.7515C16.7058 21.6613 4.85144 28.5054 1.76123 40.0382C-1.32897 51.571 5.51509 63.4253 17.0479 66.5155L26.87 69.1474L27.269 69.2543L27.1621 69.6533L24.5303 79.4754C21.4401 91.0082 28.2842 102.863 39.817 105.953C51.3498 109.043 63.2041 102.199 66.2943 90.666L68.9261 80.844Z" stroke="#D8D6D6" stroke-width="0.826255"/>
</svg>
