<svg width="1728" height="26" viewBox="0 0 1728 26" fill="none" xmlns="http://www.w3.org/2000/svg">
<g opacity="0.5">
<mask id="path-1-inside-1_12_692" fill="white">
<path d="M19.2065 17.2803C20.7226 19.9083 19.8229 23.2688 17.197 24.7861C14.5712 26.3034 11.2135 25.403 9.69742 22.7749L8.43047 20.5787L6.23606 21.8467C3.61018 23.364 0.2525 22.4635 -1.26355 19.8355C-2.7796 17.2074 -1.87991 13.847 0.745958 12.3297L2.94037 11.0617L1.67343 8.86543C0.157385 6.23737 1.05707 2.8769 3.68294 1.3596C6.30881 -0.157711 9.66651 0.742712 11.1826 3.37077L12.4495 5.56702L14.6439 4.29899C17.2698 2.78168 20.6275 3.68213 22.1435 6.31019C23.6596 8.93824 22.7599 12.2987 20.134 13.816L17.9396 15.084L19.2065 17.2803Z"/>
<path d="M54.0385 17.2803C55.5546 19.9083 54.6549 23.2688 52.029 24.7861C49.4031 26.3034 46.0455 25.403 44.5294 22.7749L43.2624 20.5787L41.068 21.8467C38.4422 23.364 35.0845 22.4635 33.5684 19.8355C32.0524 17.2074 32.9521 13.847 35.5779 12.3297L37.7724 11.0617L36.5054 8.86543C34.9894 6.23737 35.8891 2.8769 38.5149 1.3596C41.1408 -0.157711 44.4985 0.742712 46.0145 3.37077L47.2815 5.56702L49.4759 4.29899C52.1017 2.78168 55.4595 3.68213 56.9755 6.31019C58.4916 8.93824 57.5919 12.2987 54.966 13.816L52.7716 15.084L54.0385 17.2803Z"/>
<path d="M88.8705 17.2803C90.3865 19.9083 89.4868 23.2688 86.861 24.7861C84.2351 26.3034 80.8774 25.403 79.3614 22.7749L78.0944 20.5787L75.9 21.8467C73.2741 23.364 69.9164 22.4635 68.4004 19.8355C66.8843 17.2074 67.784 13.847 70.4099 12.3297L72.6043 11.0617L71.3374 8.86543C69.8213 6.23737 70.721 2.8769 73.3469 1.3596C75.9728 -0.157711 79.3305 0.742712 80.8465 3.37077L82.1134 5.56702L84.3078 4.29899C86.9337 2.78168 90.2914 3.68213 91.8075 6.31019C93.3235 8.93824 92.4238 12.2987 89.798 13.816L87.6035 15.084L88.8705 17.2803Z"/>
<path d="M123.702 17.2803C125.218 19.9083 124.319 23.2688 121.693 24.7861C119.067 26.3034 115.709 25.403 114.193 22.7749L112.926 20.5787L110.732 21.8467C108.106 23.364 104.748 22.4635 103.232 19.8355C101.716 17.2074 102.616 13.847 105.242 12.3297L107.436 11.0617L106.169 8.86543C104.653 6.23737 105.553 2.8769 108.179 1.3596C110.805 -0.157711 114.162 0.742712 115.678 3.37077L116.945 5.56702L119.14 4.29899C121.766 2.78168 125.123 3.68213 126.639 6.31019C128.156 8.93824 127.256 12.2987 124.63 13.816L122.436 15.084L123.702 17.2803Z"/>
<path d="M158.534 17.2803C160.05 19.9083 159.151 23.2688 156.525 24.7861C153.899 26.3034 150.541 25.403 149.025 22.7749L147.758 20.5787L145.564 21.8467C142.938 23.364 139.58 22.4635 138.064 19.8355C136.548 17.2074 137.448 13.847 140.074 12.3297L142.268 11.0617L141.001 8.86543C139.485 6.23737 140.385 2.8769 143.011 1.3596C145.637 -0.157711 148.994 0.742712 150.51 3.37077L151.777 5.56702L153.972 4.29899C156.598 2.78168 159.955 3.68213 161.471 6.31019C162.987 8.93824 162.088 12.2987 159.462 13.816L157.267 15.084L158.534 17.2803Z"/>
<path d="M193.366 17.2803C194.882 19.9083 193.983 23.2688 191.357 24.7861C188.731 26.3034 185.373 25.403 183.857 22.7749L182.59 20.5787L180.396 21.8467C177.77 23.364 174.412 22.4635 172.896 19.8355C171.38 17.2074 172.28 13.847 174.906 12.3297L177.1 11.0617L175.833 8.86543C174.317 6.23737 175.217 2.8769 177.843 1.3596C180.469 -0.157711 183.826 0.742712 185.342 3.37077L186.609 5.56702L188.804 4.29899C191.43 2.78168 194.787 3.68213 196.303 6.31019C197.819 8.93824 196.92 12.2987 194.294 13.816L192.099 15.084L193.366 17.2803Z"/>
<path d="M228.198 17.2803C229.714 19.9083 228.815 23.2688 226.189 24.7861C223.563 26.3034 220.205 25.403 218.689 22.7749L217.422 20.5787L215.228 21.8467C212.602 23.364 209.244 22.4635 207.728 19.8355C206.212 17.2074 207.112 13.847 209.738 12.3297L211.932 11.0617L210.665 8.86543C209.149 6.23737 210.049 2.8769 212.675 1.3596C215.301 -0.157711 218.658 0.742712 220.174 3.37077L221.441 5.56702L223.636 4.29899C226.262 2.78168 229.619 3.68213 231.135 6.31019C232.651 8.93824 231.752 12.2987 229.126 13.816L226.931 15.084L228.198 17.2803Z"/>
<path d="M263.03 17.2803C264.546 19.9083 263.647 23.2688 261.021 24.7861C258.395 26.3034 255.037 25.403 253.521 22.7749L252.254 20.5787L250.06 21.8467C247.434 23.364 244.076 22.4635 242.56 19.8355C241.044 17.2074 241.944 13.847 244.57 12.3297L246.764 11.0617L245.497 8.86543C243.981 6.23737 244.881 2.8769 247.507 1.3596C250.133 -0.157711 253.49 0.742712 255.006 3.37077L256.273 5.56702L258.468 4.29899C261.094 2.78168 264.451 3.68213 265.967 6.31019C267.483 8.93824 266.584 12.2987 263.958 13.816L261.763 15.084L263.03 17.2803Z"/>
<path d="M297.862 17.2803C299.378 19.9083 298.479 23.2688 295.853 24.7861C293.227 26.3034 289.869 25.403 288.353 22.7749L287.086 20.5787L284.892 21.8467C282.266 23.364 278.908 22.4635 277.392 19.8355C275.876 17.2074 276.776 13.847 279.402 12.3297L281.596 11.0617L280.329 8.86543C278.813 6.23737 279.713 2.8769 282.339 1.3596C284.965 -0.157711 288.322 0.742712 289.838 3.37077L291.105 5.56702L293.3 4.29899C295.926 2.78168 299.283 3.68213 300.799 6.31019C302.315 8.93824 301.416 12.2987 298.79 13.816L296.595 15.084L297.862 17.2803Z"/>
<path d="M332.694 17.2803C334.21 19.9083 333.311 23.2688 330.685 24.7861C328.059 26.3034 324.701 25.403 323.185 22.7749L321.918 20.5787L319.724 21.8467C317.098 23.364 313.74 22.4635 312.224 19.8355C310.708 17.2074 311.608 13.847 314.234 12.3297L316.428 11.0617L315.161 8.86543C313.645 6.23737 314.545 2.8769 317.171 1.3596C319.797 -0.157711 323.154 0.742712 324.67 3.37077L325.937 5.56702L328.132 4.29899C330.758 2.78168 334.115 3.68213 335.631 6.31019C337.147 8.93824 336.248 12.2987 333.622 13.816L331.427 15.084L332.694 17.2803Z"/>
<path d="M367.526 17.2803C369.042 19.9083 368.143 23.2688 365.517 24.7861C362.891 26.3034 359.533 25.403 358.017 22.7749L356.75 20.5787L354.556 21.8467C351.93 23.364 348.572 22.4635 347.056 19.8355C345.54 17.2074 346.44 13.847 349.066 12.3297L351.26 11.0617L349.993 8.86543C348.477 6.23737 349.377 2.8769 352.003 1.3596C354.629 -0.157711 357.986 0.742712 359.502 3.37077L360.769 5.56702L362.964 4.29899C365.59 2.78168 368.947 3.68213 370.463 6.31019C371.979 8.93824 371.08 12.2987 368.454 13.816L366.259 15.084L367.526 17.2803Z"/>
<path d="M402.358 17.2803C403.874 19.9083 402.975 23.2688 400.349 24.7861C397.723 26.3034 394.365 25.403 392.849 22.7749L391.582 20.5787L389.388 21.8467C386.762 23.364 383.404 22.4635 381.888 19.8355C380.372 17.2074 381.272 13.847 383.898 12.3297L386.092 11.0617L384.825 8.86543C383.309 6.23737 384.209 2.8769 386.835 1.3596C389.461 -0.157711 392.818 0.742712 394.334 3.37077L395.601 5.56702L397.796 4.29899C400.421 2.78168 403.779 3.68213 405.295 6.31019C406.811 8.93824 405.912 12.2987 403.286 13.816L401.091 15.084L402.358 17.2803Z"/>
<path d="M437.19 17.2803C438.706 19.9083 437.807 23.2688 435.181 24.7861C432.555 26.3034 429.197 25.403 427.681 22.7749L426.414 20.5787L424.22 21.8467C421.594 23.364 418.236 22.4635 416.72 19.8355C415.204 17.2074 416.104 13.847 418.73 12.3297L420.924 11.0617L419.657 8.86543C418.141 6.23737 419.041 2.8769 421.667 1.3596C424.293 -0.157711 427.65 0.742712 429.166 3.37077L430.433 5.56702L432.628 4.29899C435.253 2.78168 438.611 3.68213 440.127 6.31019C441.643 8.93824 440.744 12.2987 438.118 13.816L435.923 15.084L437.19 17.2803Z"/>
<path d="M472.022 17.2803C473.538 19.9083 472.639 23.2688 470.013 24.7861C467.387 26.3034 464.029 25.403 462.513 22.7749L461.246 20.5787L459.052 21.8467C456.426 23.364 453.068 22.4635 451.552 19.8355C450.036 17.2074 450.936 13.847 453.562 12.3297L455.756 11.0617L454.489 8.86543C452.973 6.23737 453.873 2.8769 456.499 1.3596C459.124 -0.157711 462.482 0.742712 463.998 3.37077L465.265 5.56702L467.46 4.29899C470.085 2.78168 473.443 3.68213 474.959 6.31019C476.475 8.93824 475.576 12.2987 472.95 13.816L470.755 15.084L472.022 17.2803Z"/>
<path d="M506.854 17.2803C508.37 19.9083 507.471 23.2688 504.845 24.7861C502.219 26.3034 498.861 25.403 497.345 22.7749L496.078 20.5787L493.884 21.8467C491.258 23.364 487.9 22.4635 486.384 19.8355C484.868 17.2074 485.768 13.847 488.394 12.3297L490.588 11.0617L489.321 8.86543C487.805 6.23737 488.705 2.8769 491.331 1.3596C493.956 -0.157711 497.314 0.742712 498.83 3.37077L500.097 5.56702L502.292 4.29899C504.917 2.78168 508.275 3.68213 509.791 6.31019C511.307 8.93824 510.408 12.2987 507.782 13.816L505.587 15.084L506.854 17.2803Z"/>
<path d="M541.686 17.2803C543.202 19.9083 542.302 23.2688 539.677 24.7861C537.051 26.3034 533.693 25.403 532.177 22.7749L530.91 20.5787L528.716 21.8467C526.09 23.364 522.732 22.4635 521.216 19.8355C519.7 17.2074 520.6 13.847 523.226 12.3297L525.42 11.0617L524.153 8.86543C522.637 6.23737 523.537 2.8769 526.163 1.3596C528.788 -0.157711 532.146 0.742712 533.662 3.37077L534.929 5.56702L537.124 4.29899C539.749 2.78168 543.107 3.68213 544.623 6.31019C546.139 8.93824 545.24 12.2987 542.614 13.816L540.419 15.084L541.686 17.2803Z"/>
<path d="M576.518 17.2803C578.034 19.9083 577.134 23.2688 574.509 24.7861C571.883 26.3034 568.525 25.403 567.009 22.7749L565.742 20.5787L563.548 21.8467C560.922 23.364 557.564 22.4635 556.048 19.8355C554.532 17.2074 555.432 13.847 558.057 12.3297L560.252 11.0617L558.985 8.86543C557.469 6.23737 558.369 2.8769 560.995 1.3596C563.62 -0.157711 566.978 0.742712 568.494 3.37077L569.761 5.56702L571.956 4.29899C574.581 2.78168 577.939 3.68213 579.455 6.31019C580.971 8.93824 580.071 12.2987 577.446 13.816L575.251 15.084L576.518 17.2803Z"/>
<path d="M611.35 17.2803C612.866 19.9083 611.966 23.2688 609.341 24.7861C606.715 26.3034 603.357 25.403 601.841 22.7749L600.574 20.5787L598.38 21.8467C595.754 23.364 592.396 22.4635 590.88 19.8355C589.364 17.2074 590.264 13.847 592.889 12.3297L595.084 11.0617L593.817 8.86543C592.301 6.23737 593.201 2.8769 595.826 1.3596C598.452 -0.157711 601.81 0.742712 603.326 3.37077L604.593 5.56702L606.787 4.29899C609.413 2.78168 612.771 3.68213 614.287 6.31019C615.803 8.93824 614.903 12.2987 612.278 13.816L610.083 15.084L611.35 17.2803Z"/>
<path d="M646.182 17.2803C647.698 19.9083 646.798 23.2688 644.173 24.7861C641.547 26.3034 638.189 25.403 636.673 22.7749L635.406 20.5787L633.212 21.8467C630.586 23.364 627.228 22.4635 625.712 19.8355C624.196 17.2074 625.096 13.847 627.721 12.3297L629.916 11.0617L628.649 8.86543C627.133 6.23737 628.033 2.8769 630.658 1.3596C633.284 -0.157711 636.642 0.742712 638.158 3.37077L639.425 5.56702L641.619 4.29899C644.245 2.78168 647.603 3.68213 649.119 6.31019C650.635 8.93824 649.735 12.2987 647.11 13.816L644.915 15.084L646.182 17.2803Z"/>
<path d="M681.014 17.2803C682.53 19.9083 681.63 23.2688 679.005 24.7861C676.379 26.3034 673.021 25.403 671.505 22.7749L670.238 20.5787L668.044 21.8467C665.418 23.364 662.06 22.4635 660.544 19.8355C659.028 17.2074 659.928 13.847 662.553 12.3297L664.748 11.0617L663.481 8.86543C661.965 6.23737 662.865 2.8769 665.49 1.3596C668.116 -0.157711 671.474 0.742712 672.99 3.37077L674.257 5.56702L676.451 4.29899C679.077 2.78168 682.435 3.68213 683.951 6.31019C685.467 8.93824 684.567 12.2987 681.942 13.816L679.747 15.084L681.014 17.2803Z"/>
<path d="M715.846 17.2803C717.362 19.9083 716.462 23.2688 713.836 24.7861C711.211 26.3034 707.853 25.403 706.337 22.7749L705.07 20.5787L702.875 21.8467C700.25 23.364 696.892 22.4635 695.376 19.8355C693.86 17.2074 694.76 13.847 697.385 12.3297L699.58 11.0617L698.313 8.86543C696.797 6.23737 697.697 2.8769 700.322 1.3596C702.948 -0.157711 706.306 0.742712 707.822 3.37077L709.089 5.56702L711.283 4.29899C713.909 2.78168 717.267 3.68213 718.783 6.31019C720.299 8.93824 719.399 12.2987 716.773 13.816L714.579 15.084L715.846 17.2803Z"/>
<path d="M750.678 17.2803C752.194 19.9083 751.294 23.2688 748.668 24.7861C746.043 26.3034 742.685 25.403 741.169 22.7749L739.902 20.5787L737.707 21.8467C735.082 23.364 731.724 22.4635 730.208 19.8355C728.692 17.2074 729.591 13.847 732.217 12.3297L734.412 11.0617L733.145 8.86543C731.629 6.23737 732.529 2.8769 735.154 1.3596C737.78 -0.157711 741.138 0.742712 742.654 3.37077L743.921 5.56702L746.115 4.29899C748.741 2.78168 752.099 3.68213 753.615 6.31019C755.131 8.93824 754.231 12.2987 751.605 13.816L749.411 15.084L750.678 17.2803Z"/>
<path d="M785.51 17.2803C787.026 19.9083 786.126 23.2688 783.5 24.7861C780.875 26.3034 777.517 25.403 776.001 22.7749L774.734 20.5787L772.539 21.8467C769.914 23.364 766.556 22.4635 765.04 19.8355C763.524 17.2074 764.423 13.847 767.049 12.3297L769.244 11.0617L767.977 8.86543C766.461 6.23737 767.36 2.8769 769.986 1.3596C772.612 -0.157711 775.97 0.742712 777.486 3.37077L778.753 5.56702L780.947 4.29899C783.573 2.78168 786.931 3.68213 788.447 6.31019C789.963 8.93824 789.063 12.2987 786.437 13.816L784.243 15.084L785.51 17.2803Z"/>
<path d="M820.342 17.2803C821.858 19.9083 820.958 23.2688 818.332 24.7861C815.707 26.3034 812.349 25.403 810.833 22.7749L809.566 20.5787L807.371 21.8467C804.746 23.364 801.388 22.4635 799.872 19.8355C798.356 17.2074 799.255 13.847 801.881 12.3297L804.076 11.0617L802.809 8.86543C801.293 6.23737 802.192 2.8769 804.818 1.3596C807.444 -0.157711 810.802 0.742712 812.318 3.37077L813.585 5.56702L815.779 4.29899C818.405 2.78168 821.763 3.68213 823.279 6.31019C824.795 8.93824 823.895 12.2987 821.269 13.816L819.075 15.084L820.342 17.2803Z"/>
<path d="M855.174 17.2803C856.69 19.9083 855.79 23.2688 853.164 24.7861C850.539 26.3034 847.181 25.403 845.665 22.7749L844.398 20.5787L842.203 21.8467C839.578 23.364 836.22 22.4635 834.704 19.8355C833.188 17.2074 834.087 13.847 836.713 12.3297L838.908 11.0617L837.641 8.86543C836.125 6.23737 837.024 2.8769 839.65 1.3596C842.276 -0.157711 845.634 0.742712 847.15 3.37077L848.417 5.56702L850.611 4.29899C853.237 2.78168 856.595 3.68213 858.111 6.31019C859.627 8.93824 858.727 12.2987 856.101 13.816L853.907 15.084L855.174 17.2803Z"/>
<path d="M889.384 16.6578C890.9 19.2858 890 22.6463 887.374 24.1636C884.749 25.6809 881.391 24.7805 879.875 22.1524L878.608 19.9562L876.413 21.2242C873.787 22.7415 870.43 21.841 868.914 19.213C867.398 16.5849 868.297 13.2244 870.923 11.7071L873.118 10.4392L871.851 8.24293C870.335 5.61487 871.234 2.25437 873.86 0.737065C876.486 -0.780243 879.844 0.120184 881.36 2.74824L882.627 4.9445L884.821 3.67649C887.447 2.15918 890.805 3.05964 892.321 5.68769C893.837 8.31575 892.937 11.6762 890.311 13.1935L888.117 14.4615L889.384 16.6578Z"/>
<path d="M924.216 16.6578C925.732 19.2858 924.832 22.6463 922.206 24.1636C919.58 25.6809 916.223 24.7805 914.707 22.1524L913.44 19.9562L911.245 21.2242C908.62 22.7415 905.262 21.841 903.746 19.213C902.23 16.5849 903.129 13.2244 905.755 11.7071L907.95 10.4392L906.683 8.24293C905.167 5.61487 906.066 2.25437 908.692 0.737065C911.318 -0.780243 914.676 0.120184 916.192 2.74824L917.459 4.9445L919.653 3.67649C922.279 2.15918 925.637 3.05964 927.153 5.68769C928.669 8.31575 927.769 11.6762 925.143 13.1935L922.949 14.4615L924.216 16.6578Z"/>
<path d="M959.048 16.6578C960.564 19.2858 959.664 22.6463 957.038 24.1636C954.412 25.6809 951.055 24.7805 949.539 22.1524L948.272 19.9562L946.077 21.2242C943.451 22.7415 940.094 21.841 938.578 19.213C937.062 16.5849 937.961 13.2244 940.587 11.7071L942.782 10.4392L941.515 8.24293C939.999 5.61487 940.898 2.25437 943.524 0.737065C946.15 -0.780243 949.508 0.120184 951.024 2.74824L952.291 4.9445L954.485 3.67649C957.111 2.15918 960.469 3.05964 961.985 5.68769C963.501 8.31575 962.601 11.6762 959.975 13.1935L957.781 14.4615L959.048 16.6578Z"/>
<path d="M993.88 16.6578C995.396 19.2858 994.496 22.6463 991.87 24.1636C989.244 25.6809 985.887 24.7805 984.371 22.1524L983.104 19.9562L980.909 21.2242C978.283 22.7415 974.926 21.841 973.41 19.213C971.894 16.5849 972.793 13.2244 975.419 11.7071L977.614 10.4392L976.347 8.24293C974.831 5.61487 975.73 2.25437 978.356 0.737065C980.982 -0.780243 984.34 0.120184 985.856 2.74824L987.123 4.9445L989.317 3.67649C991.943 2.15918 995.301 3.05964 996.817 5.68769C998.333 8.31575 997.433 11.6762 994.807 13.1935L992.613 14.4615L993.88 16.6578Z"/>
<path d="M1028.71 16.6578C1030.23 19.2858 1029.33 22.6463 1026.7 24.1636C1024.08 25.6809 1020.72 24.7805 1019.2 22.1524L1017.94 19.9562L1015.74 21.2242C1013.12 22.7415 1009.76 21.841 1008.24 19.213C1006.73 16.5849 1007.63 13.2244 1010.25 11.7071L1012.45 10.4392L1011.18 8.24293C1009.66 5.61487 1010.56 2.25437 1013.19 0.737065C1015.81 -0.780243 1019.17 0.120184 1020.69 2.74824L1021.95 4.9445L1024.15 3.67649C1026.78 2.15918 1030.13 3.05964 1031.65 5.68769C1033.16 8.31575 1032.27 11.6762 1029.64 13.1935L1027.44 14.4615L1028.71 16.6578Z"/>
<path d="M1063.54 16.6578C1065.06 19.2858 1064.16 22.6463 1061.53 24.1636C1058.91 25.6809 1055.55 24.7805 1054.03 22.1524L1052.77 19.9562L1050.57 21.2242C1047.95 22.7415 1044.59 21.841 1043.07 19.213C1041.56 16.5849 1042.46 13.2244 1045.08 11.7071L1047.28 10.4392L1046.01 8.24293C1044.49 5.61487 1045.39 2.25437 1048.02 0.737065C1050.65 -0.780243 1054 0.120184 1055.52 2.74824L1056.79 4.9445L1058.98 3.67649C1061.61 2.15918 1064.96 3.05964 1066.48 5.68769C1068 8.31575 1067.1 11.6762 1064.47 13.1935L1062.28 14.4615L1063.54 16.6578Z"/>
<path d="M1098.38 16.6578C1099.89 19.2858 1098.99 22.6463 1096.37 24.1636C1093.74 25.6809 1090.38 24.7805 1088.87 22.1524L1087.6 19.9562L1085.41 21.2242C1082.78 22.7415 1079.42 21.841 1077.91 19.213C1076.39 16.5849 1077.29 13.2244 1079.92 11.7071L1082.11 10.4392L1080.84 8.24293C1079.33 5.61487 1080.23 2.25437 1082.85 0.737065C1085.48 -0.780243 1088.84 0.120184 1090.35 2.74824L1091.62 4.9445L1093.81 3.67649C1096.44 2.15918 1099.8 3.05964 1101.31 5.68769C1102.83 8.31575 1101.93 11.6762 1099.3 13.1935L1097.11 14.4615L1098.38 16.6578Z"/>
<path d="M1133.21 16.6578C1134.72 19.2858 1133.82 22.6463 1131.2 24.1636C1128.57 25.6809 1125.21 24.7805 1123.7 22.1524L1122.43 19.9562L1120.24 21.2242C1117.61 22.7415 1114.25 21.841 1112.74 19.213C1111.22 16.5849 1112.12 13.2244 1114.75 11.7071L1116.94 10.4392L1115.67 8.24293C1114.16 5.61487 1115.06 2.25437 1117.68 0.737065C1120.31 -0.780243 1123.67 0.120184 1125.18 2.74824L1126.45 4.9445L1128.65 3.67649C1131.27 2.15918 1134.63 3.05964 1136.14 5.68769C1137.66 8.31575 1136.76 11.6762 1134.14 13.1935L1131.94 14.4615L1133.21 16.6578Z"/>
<path d="M1168.04 16.6578C1169.56 19.2858 1168.66 22.6463 1166.03 24.1636C1163.4 25.6809 1160.05 24.7805 1158.53 22.1524L1157.26 19.9562L1155.07 21.2242C1152.44 22.7415 1149.09 21.841 1147.57 19.213C1146.05 16.5849 1146.95 13.2244 1149.58 11.7071L1151.77 10.4392L1150.51 8.24293C1148.99 5.61487 1149.89 2.25437 1152.52 0.737065C1155.14 -0.780243 1158.5 0.120184 1160.02 2.74824L1161.28 4.9445L1163.48 3.67649C1166.1 2.15918 1169.46 3.05964 1170.98 5.68769C1172.49 8.31575 1171.59 11.6762 1168.97 13.1935L1166.77 14.4615L1168.04 16.6578Z"/>
<path d="M1202.87 16.6578C1204.39 19.2858 1203.49 22.6463 1200.86 24.1636C1198.24 25.6809 1194.88 24.7805 1193.36 22.1524L1192.1 19.9562L1189.9 21.2242C1187.28 22.7415 1183.92 21.841 1182.4 19.213C1180.89 16.5849 1181.79 13.2244 1184.41 11.7071L1186.61 10.4392L1185.34 8.24293C1183.82 5.61487 1184.72 2.25437 1187.35 0.737065C1189.97 -0.780243 1193.33 0.120184 1194.85 2.74824L1196.11 4.9445L1198.31 3.67649C1200.93 2.15918 1204.29 3.05964 1205.81 5.68769C1207.32 8.31575 1206.42 11.6762 1203.8 13.1935L1201.6 14.4615L1202.87 16.6578Z"/>
<path d="M1237.7 16.6578C1239.22 19.2858 1238.32 22.6463 1235.69 24.1636C1233.07 25.6809 1229.71 24.7805 1228.19 22.1524L1226.93 19.9562L1224.73 21.2242C1222.11 22.7415 1218.75 21.841 1217.23 19.213C1215.72 16.5849 1216.62 13.2244 1219.24 11.7071L1221.44 10.4392L1220.17 8.24293C1218.65 5.61487 1219.55 2.25437 1222.18 0.737065C1224.81 -0.780243 1228.16 0.120184 1229.68 2.74824L1230.95 4.9445L1233.14 3.67649C1235.77 2.15918 1239.12 3.05964 1240.64 5.68769C1242.16 8.31575 1241.26 11.6762 1238.63 13.1935L1236.44 14.4615L1237.7 16.6578Z"/>
<path d="M1272.54 16.6578C1274.05 19.2858 1273.15 22.6463 1270.53 24.1636C1267.9 25.6809 1264.54 24.7805 1263.03 22.1524L1261.76 19.9562L1259.57 21.2242C1256.94 22.7415 1253.58 21.841 1252.07 19.213C1250.55 16.5849 1251.45 13.2244 1254.07 11.7071L1256.27 10.4392L1255 8.24293C1253.49 5.61487 1254.39 2.25437 1257.01 0.737065C1259.64 -0.780243 1263 0.120184 1264.51 2.74824L1265.78 4.9445L1267.97 3.67649C1270.6 2.15918 1273.96 3.05964 1275.47 5.68769C1276.99 8.31575 1276.09 11.6762 1273.46 13.1935L1271.27 14.4615L1272.54 16.6578Z"/>
<path d="M1307.37 16.6578C1308.88 19.2858 1307.98 22.6463 1305.36 24.1636C1302.73 25.6809 1299.37 24.7805 1297.86 22.1524L1296.59 19.9562L1294.4 21.2242C1291.77 22.7415 1288.41 21.841 1286.9 19.213C1285.38 16.5849 1286.28 13.2244 1288.91 11.7071L1291.1 10.4392L1289.83 8.24293C1288.32 5.61487 1289.22 2.25437 1291.84 0.737065C1294.47 -0.780243 1297.83 0.120184 1299.34 2.74824L1300.61 4.9445L1302.8 3.67649C1305.43 2.15918 1308.79 3.05964 1310.3 5.68769C1311.82 8.31575 1310.92 11.6762 1308.29 13.1935L1306.1 14.4615L1307.37 16.6578Z"/>
<path d="M1342.2 16.6578C1343.72 19.2858 1342.82 22.6463 1340.19 24.1636C1337.56 25.6809 1334.21 24.7805 1332.69 22.1524L1331.42 19.9562L1329.23 21.2242C1326.6 22.7415 1323.25 21.841 1321.73 19.213C1320.21 16.5849 1321.11 13.2244 1323.74 11.7071L1325.93 10.4392L1324.67 8.24293C1323.15 5.61487 1324.05 2.25437 1326.68 0.737065C1329.3 -0.780243 1332.66 0.120184 1334.18 2.74824L1335.44 4.9445L1337.64 3.67649C1340.26 2.15918 1343.62 3.05964 1345.14 5.68769C1346.65 8.31575 1345.75 11.6762 1343.13 13.1935L1340.93 14.4615L1342.2 16.6578Z"/>
<path d="M1377.03 16.6578C1378.55 19.2858 1377.65 22.6463 1375.02 24.1636C1372.4 25.6809 1369.04 24.7805 1367.52 22.1524L1366.26 19.9562L1364.06 21.2242C1361.44 22.7415 1358.08 21.841 1356.56 19.213C1355.05 16.5849 1355.95 13.2244 1358.57 11.7071L1360.77 10.4392L1359.5 8.24293C1357.98 5.61487 1358.88 2.25437 1361.51 0.737065C1364.13 -0.780243 1367.49 0.120184 1369.01 2.74824L1370.27 4.9445L1372.47 3.67649C1375.09 2.15918 1378.45 3.05964 1379.97 5.68769C1381.48 8.31575 1380.58 11.6762 1377.96 13.1935L1375.76 14.4615L1377.03 16.6578Z"/>
<path d="M1411.86 16.6578C1413.38 19.2858 1412.48 22.6463 1409.85 24.1636C1407.23 25.6809 1403.87 24.7805 1402.35 22.1524L1401.09 19.9562L1398.89 21.2242C1396.27 22.7415 1392.91 21.841 1391.39 19.213C1389.88 16.5849 1390.78 13.2244 1393.4 11.7071L1395.6 10.4392L1394.33 8.24293C1392.81 5.61487 1393.71 2.25437 1396.34 0.737065C1398.97 -0.780243 1402.32 0.120184 1403.84 2.74824L1405.11 4.9445L1407.3 3.67649C1409.93 2.15918 1413.28 3.05964 1414.8 5.68769C1416.32 8.31575 1415.42 11.6762 1412.79 13.1935L1410.6 14.4615L1411.86 16.6578Z"/>
<path d="M1446.7 16.6578C1448.21 19.2858 1447.31 22.6463 1444.69 24.1636C1442.06 25.6809 1438.7 24.7805 1437.19 22.1524L1435.92 19.9562L1433.72 21.2242C1431.1 22.7415 1427.74 21.841 1426.23 19.213C1424.71 16.5849 1425.61 13.2244 1428.23 11.7071L1430.43 10.4392L1429.16 8.24293C1427.65 5.61487 1428.55 2.25437 1431.17 0.737065C1433.8 -0.780243 1437.16 0.120184 1438.67 2.74824L1439.94 4.9445L1442.13 3.67649C1444.76 2.15918 1448.12 3.05964 1449.63 5.68769C1451.15 8.31575 1450.25 11.6762 1447.62 13.1935L1445.43 14.4615L1446.7 16.6578Z"/>
<path d="M1481.53 16.6578C1483.04 19.2858 1482.14 22.6463 1479.52 24.1636C1476.89 25.6809 1473.53 24.7805 1472.02 22.1524L1470.75 19.9562L1468.56 21.2242C1465.93 22.7415 1462.57 21.841 1461.06 19.213C1459.54 16.5849 1460.44 13.2244 1463.07 11.7071L1465.26 10.4392L1463.99 8.24293C1462.48 5.61487 1463.38 2.25437 1466 0.737065C1468.63 -0.780243 1471.99 0.120184 1473.5 2.74824L1474.77 4.9445L1476.96 3.67649C1479.59 2.15918 1482.95 3.05964 1484.46 5.68769C1485.98 8.31575 1485.08 11.6762 1482.45 13.1935L1480.26 14.4615L1481.53 16.6578Z"/>
<path d="M1516.36 16.6578C1517.88 19.2858 1516.98 22.6463 1514.35 24.1636C1511.72 25.6809 1508.37 24.7805 1506.85 22.1524L1505.58 19.9562L1503.39 21.2242C1500.76 22.7415 1497.41 21.841 1495.89 19.213C1494.37 16.5849 1495.27 13.2244 1497.9 11.7071L1500.09 10.4392L1498.83 8.24293C1497.31 5.61487 1498.21 2.25437 1500.84 0.737065C1503.46 -0.780243 1506.82 0.120184 1508.34 2.74824L1509.6 4.9445L1511.8 3.67649C1514.42 2.15918 1517.78 3.05964 1519.3 5.68769C1520.81 8.31575 1519.91 11.6762 1517.29 13.1935L1515.09 14.4615L1516.36 16.6578Z"/>
<path d="M1551.19 16.6578C1552.71 19.2858 1551.81 22.6463 1549.18 24.1636C1546.56 25.6809 1543.2 24.7805 1541.68 22.1524L1540.42 19.9562L1538.22 21.2242C1535.59 22.7415 1532.24 21.841 1530.72 19.213C1529.21 16.5849 1530.1 13.2244 1532.73 11.7071L1534.93 10.4392L1533.66 8.24293C1532.14 5.61487 1533.04 2.25437 1535.67 0.737065C1538.29 -0.780243 1541.65 0.120184 1543.17 2.74824L1544.43 4.9445L1546.63 3.67649C1549.25 2.15918 1552.61 3.05964 1554.13 5.68769C1555.64 8.31575 1554.74 11.6762 1552.12 13.1935L1549.92 14.4615L1551.19 16.6578Z"/>
<path d="M1586.02 16.6578C1587.54 19.2858 1586.64 22.6463 1584.01 24.1636C1581.39 25.6809 1578.03 24.7805 1576.51 22.1524L1575.25 19.9562L1573.05 21.2242C1570.43 22.7415 1567.07 21.841 1565.55 19.213C1564.04 16.5849 1564.94 13.2244 1567.56 11.7071L1569.76 10.4392L1568.49 8.24293C1566.97 5.61487 1567.87 2.25437 1570.5 0.737065C1573.13 -0.780243 1576.48 0.120184 1578 2.74824L1579.27 4.9445L1581.46 3.67649C1584.09 2.15918 1587.44 3.05964 1588.96 5.68769C1590.48 8.31575 1589.58 11.6762 1586.95 13.1935L1584.76 14.4615L1586.02 16.6578Z"/>
<path d="M1620.86 16.6578C1622.37 19.2858 1621.47 22.6463 1618.85 24.1636C1616.22 25.6809 1612.86 24.7805 1611.35 22.1524L1610.08 19.9562L1607.88 21.2242C1605.26 22.7415 1601.9 21.841 1600.39 19.213C1598.87 16.5849 1599.77 13.2244 1602.39 11.7071L1604.59 10.4392L1603.32 8.24293C1601.81 5.61487 1602.71 2.25437 1605.33 0.737065C1607.96 -0.780243 1611.32 0.120184 1612.83 2.74824L1614.1 4.9445L1616.29 3.67649C1618.92 2.15918 1622.28 3.05964 1623.79 5.68769C1625.31 8.31575 1624.41 11.6762 1621.78 13.1935L1619.59 14.4615L1620.86 16.6578Z"/>
<path d="M1655.69 16.6578C1657.2 19.2858 1656.3 22.6463 1653.68 24.1636C1651.05 25.6809 1647.69 24.7805 1646.18 22.1524L1644.91 19.9562L1642.72 21.2242C1640.09 22.7415 1636.73 21.841 1635.22 19.213C1633.7 16.5849 1634.6 13.2244 1637.23 11.7071L1639.42 10.4392L1638.15 8.24293C1636.64 5.61487 1637.54 2.25437 1640.16 0.737065C1642.79 -0.780243 1646.15 0.120184 1647.66 2.74824L1648.93 4.9445L1651.12 3.67649C1653.75 2.15918 1657.11 3.05964 1658.62 5.68769C1660.14 8.31575 1659.24 11.6762 1656.61 13.1935L1654.42 14.4615L1655.69 16.6578Z"/>
<path d="M1690.52 16.6578C1692.04 19.2858 1691.14 22.6463 1688.51 24.1636C1685.88 25.6809 1682.53 24.7805 1681.01 22.1524L1679.74 19.9562L1677.55 21.2242C1674.92 22.7415 1671.57 21.841 1670.05 19.213C1668.53 16.5849 1669.43 13.2244 1672.06 11.7071L1674.25 10.4392L1672.99 8.24293C1671.47 5.61487 1672.37 2.25437 1675 0.737065C1677.62 -0.780243 1680.98 0.120184 1682.5 2.74824L1683.76 4.9445L1685.96 3.67649C1688.58 2.15918 1691.94 3.05964 1693.46 5.68769C1694.97 8.31575 1694.07 11.6762 1691.45 13.1935L1689.25 14.4615L1690.52 16.6578Z"/>
<path d="M1725.35 16.6578C1726.87 19.2858 1725.97 22.6463 1723.34 24.1636C1720.72 25.6809 1717.36 24.7805 1715.84 22.1524L1714.58 19.9562L1712.38 21.2242C1709.75 22.7415 1706.4 21.841 1704.88 19.213C1703.37 16.5849 1704.26 13.2244 1706.89 11.7071L1709.09 10.4392L1707.82 8.24293C1706.3 5.61487 1707.2 2.25437 1709.83 0.737065C1712.45 -0.780243 1715.81 0.120184 1717.33 2.74824L1718.59 4.9445L1720.79 3.67649C1723.41 2.15918 1726.77 3.05964 1728.29 5.68769C1729.8 8.31575 1728.9 11.6762 1726.28 13.1935L1724.08 14.4615L1725.35 16.6578Z"/>
</mask>
<path d="M19.2065 17.2803C20.7226 19.9083 19.8229 23.2688 17.197 24.7861C14.5712 26.3034 11.2135 25.403 9.69742 22.7749L8.43047 20.5787L6.23606 21.8467C3.61018 23.364 0.2525 22.4635 -1.26355 19.8355C-2.7796 17.2074 -1.87991 13.847 0.745958 12.3297L2.94037 11.0617L1.67343 8.86543C0.157385 6.23737 1.05707 2.8769 3.68294 1.3596C6.30881 -0.157711 9.66651 0.742712 11.1826 3.37077L12.4495 5.56702L14.6439 4.29899C17.2698 2.78168 20.6275 3.68213 22.1435 6.31019C23.6596 8.93824 22.7599 12.2987 20.134 13.816L17.9396 15.084L19.2065 17.2803Z" stroke="url(#paint0_linear_12_692)" stroke-width="2" mask="url(#path-1-inside-1_12_692)"/>
<path d="M54.0385 17.2803C55.5546 19.9083 54.6549 23.2688 52.029 24.7861C49.4031 26.3034 46.0455 25.403 44.5294 22.7749L43.2624 20.5787L41.068 21.8467C38.4422 23.364 35.0845 22.4635 33.5684 19.8355C32.0524 17.2074 32.9521 13.847 35.5779 12.3297L37.7724 11.0617L36.5054 8.86543C34.9894 6.23737 35.8891 2.8769 38.5149 1.3596C41.1408 -0.157711 44.4985 0.742712 46.0145 3.37077L47.2815 5.56702L49.4759 4.29899C52.1017 2.78168 55.4595 3.68213 56.9755 6.31019C58.4916 8.93824 57.5919 12.2987 54.966 13.816L52.7716 15.084L54.0385 17.2803Z" stroke="url(#paint1_linear_12_692)" stroke-width="2" mask="url(#path-1-inside-1_12_692)"/>
<path d="M88.8705 17.2803C90.3865 19.9083 89.4868 23.2688 86.861 24.7861C84.2351 26.3034 80.8774 25.403 79.3614 22.7749L78.0944 20.5787L75.9 21.8467C73.2741 23.364 69.9164 22.4635 68.4004 19.8355C66.8843 17.2074 67.784 13.847 70.4099 12.3297L72.6043 11.0617L71.3374 8.86543C69.8213 6.23737 70.721 2.8769 73.3469 1.3596C75.9728 -0.157711 79.3305 0.742712 80.8465 3.37077L82.1134 5.56702L84.3078 4.29899C86.9337 2.78168 90.2914 3.68213 91.8075 6.31019C93.3235 8.93824 92.4238 12.2987 89.798 13.816L87.6035 15.084L88.8705 17.2803Z" stroke="url(#paint2_linear_12_692)" stroke-width="2" mask="url(#path-1-inside-1_12_692)"/>
<path d="M123.702 17.2803C125.218 19.9083 124.319 23.2688 121.693 24.7861C119.067 26.3034 115.709 25.403 114.193 22.7749L112.926 20.5787L110.732 21.8467C108.106 23.364 104.748 22.4635 103.232 19.8355C101.716 17.2074 102.616 13.847 105.242 12.3297L107.436 11.0617L106.169 8.86543C104.653 6.23737 105.553 2.8769 108.179 1.3596C110.805 -0.157711 114.162 0.742712 115.678 3.37077L116.945 5.56702L119.14 4.29899C121.766 2.78168 125.123 3.68213 126.639 6.31019C128.156 8.93824 127.256 12.2987 124.63 13.816L122.436 15.084L123.702 17.2803Z" stroke="url(#paint3_linear_12_692)" stroke-width="2" mask="url(#path-1-inside-1_12_692)"/>
<path d="M158.534 17.2803C160.05 19.9083 159.151 23.2688 156.525 24.7861C153.899 26.3034 150.541 25.403 149.025 22.7749L147.758 20.5787L145.564 21.8467C142.938 23.364 139.58 22.4635 138.064 19.8355C136.548 17.2074 137.448 13.847 140.074 12.3297L142.268 11.0617L141.001 8.86543C139.485 6.23737 140.385 2.8769 143.011 1.3596C145.637 -0.157711 148.994 0.742712 150.51 3.37077L151.777 5.56702L153.972 4.29899C156.598 2.78168 159.955 3.68213 161.471 6.31019C162.987 8.93824 162.088 12.2987 159.462 13.816L157.267 15.084L158.534 17.2803Z" stroke="url(#paint4_linear_12_692)" stroke-width="2" mask="url(#path-1-inside-1_12_692)"/>
<path d="M193.366 17.2803C194.882 19.9083 193.983 23.2688 191.357 24.7861C188.731 26.3034 185.373 25.403 183.857 22.7749L182.59 20.5787L180.396 21.8467C177.77 23.364 174.412 22.4635 172.896 19.8355C171.38 17.2074 172.28 13.847 174.906 12.3297L177.1 11.0617L175.833 8.86543C174.317 6.23737 175.217 2.8769 177.843 1.3596C180.469 -0.157711 183.826 0.742712 185.342 3.37077L186.609 5.56702L188.804 4.29899C191.43 2.78168 194.787 3.68213 196.303 6.31019C197.819 8.93824 196.92 12.2987 194.294 13.816L192.099 15.084L193.366 17.2803Z" stroke="url(#paint5_linear_12_692)" stroke-width="2" mask="url(#path-1-inside-1_12_692)"/>
<path d="M228.198 17.2803C229.714 19.9083 228.815 23.2688 226.189 24.7861C223.563 26.3034 220.205 25.403 218.689 22.7749L217.422 20.5787L215.228 21.8467C212.602 23.364 209.244 22.4635 207.728 19.8355C206.212 17.2074 207.112 13.847 209.738 12.3297L211.932 11.0617L210.665 8.86543C209.149 6.23737 210.049 2.8769 212.675 1.3596C215.301 -0.157711 218.658 0.742712 220.174 3.37077L221.441 5.56702L223.636 4.29899C226.262 2.78168 229.619 3.68213 231.135 6.31019C232.651 8.93824 231.752 12.2987 229.126 13.816L226.931 15.084L228.198 17.2803Z" stroke="url(#paint6_linear_12_692)" stroke-width="2" mask="url(#path-1-inside-1_12_692)"/>
<path d="M263.03 17.2803C264.546 19.9083 263.647 23.2688 261.021 24.7861C258.395 26.3034 255.037 25.403 253.521 22.7749L252.254 20.5787L250.06 21.8467C247.434 23.364 244.076 22.4635 242.56 19.8355C241.044 17.2074 241.944 13.847 244.57 12.3297L246.764 11.0617L245.497 8.86543C243.981 6.23737 244.881 2.8769 247.507 1.3596C250.133 -0.157711 253.49 0.742712 255.006 3.37077L256.273 5.56702L258.468 4.29899C261.094 2.78168 264.451 3.68213 265.967 6.31019C267.483 8.93824 266.584 12.2987 263.958 13.816L261.763 15.084L263.03 17.2803Z" stroke="url(#paint7_linear_12_692)" stroke-width="2" mask="url(#path-1-inside-1_12_692)"/>
<path d="M297.862 17.2803C299.378 19.9083 298.479 23.2688 295.853 24.7861C293.227 26.3034 289.869 25.403 288.353 22.7749L287.086 20.5787L284.892 21.8467C282.266 23.364 278.908 22.4635 277.392 19.8355C275.876 17.2074 276.776 13.847 279.402 12.3297L281.596 11.0617L280.329 8.86543C278.813 6.23737 279.713 2.8769 282.339 1.3596C284.965 -0.157711 288.322 0.742712 289.838 3.37077L291.105 5.56702L293.3 4.29899C295.926 2.78168 299.283 3.68213 300.799 6.31019C302.315 8.93824 301.416 12.2987 298.79 13.816L296.595 15.084L297.862 17.2803Z" stroke="url(#paint8_linear_12_692)" stroke-width="2" mask="url(#path-1-inside-1_12_692)"/>
<path d="M332.694 17.2803C334.21 19.9083 333.311 23.2688 330.685 24.7861C328.059 26.3034 324.701 25.403 323.185 22.7749L321.918 20.5787L319.724 21.8467C317.098 23.364 313.74 22.4635 312.224 19.8355C310.708 17.2074 311.608 13.847 314.234 12.3297L316.428 11.0617L315.161 8.86543C313.645 6.23737 314.545 2.8769 317.171 1.3596C319.797 -0.157711 323.154 0.742712 324.67 3.37077L325.937 5.56702L328.132 4.29899C330.758 2.78168 334.115 3.68213 335.631 6.31019C337.147 8.93824 336.248 12.2987 333.622 13.816L331.427 15.084L332.694 17.2803Z" stroke="url(#paint9_linear_12_692)" stroke-width="2" mask="url(#path-1-inside-1_12_692)"/>
<path d="M367.526 17.2803C369.042 19.9083 368.143 23.2688 365.517 24.7861C362.891 26.3034 359.533 25.403 358.017 22.7749L356.75 20.5787L354.556 21.8467C351.93 23.364 348.572 22.4635 347.056 19.8355C345.54 17.2074 346.44 13.847 349.066 12.3297L351.26 11.0617L349.993 8.86543C348.477 6.23737 349.377 2.8769 352.003 1.3596C354.629 -0.157711 357.986 0.742712 359.502 3.37077L360.769 5.56702L362.964 4.29899C365.59 2.78168 368.947 3.68213 370.463 6.31019C371.979 8.93824 371.08 12.2987 368.454 13.816L366.259 15.084L367.526 17.2803Z" stroke="url(#paint10_linear_12_692)" stroke-width="2" mask="url(#path-1-inside-1_12_692)"/>
<path d="M402.358 17.2803C403.874 19.9083 402.975 23.2688 400.349 24.7861C397.723 26.3034 394.365 25.403 392.849 22.7749L391.582 20.5787L389.388 21.8467C386.762 23.364 383.404 22.4635 381.888 19.8355C380.372 17.2074 381.272 13.847 383.898 12.3297L386.092 11.0617L384.825 8.86543C383.309 6.23737 384.209 2.8769 386.835 1.3596C389.461 -0.157711 392.818 0.742712 394.334 3.37077L395.601 5.56702L397.796 4.29899C400.421 2.78168 403.779 3.68213 405.295 6.31019C406.811 8.93824 405.912 12.2987 403.286 13.816L401.091 15.084L402.358 17.2803Z" stroke="url(#paint11_linear_12_692)" stroke-width="2" mask="url(#path-1-inside-1_12_692)"/>
<path d="M437.19 17.2803C438.706 19.9083 437.807 23.2688 435.181 24.7861C432.555 26.3034 429.197 25.403 427.681 22.7749L426.414 20.5787L424.22 21.8467C421.594 23.364 418.236 22.4635 416.72 19.8355C415.204 17.2074 416.104 13.847 418.73 12.3297L420.924 11.0617L419.657 8.86543C418.141 6.23737 419.041 2.8769 421.667 1.3596C424.293 -0.157711 427.65 0.742712 429.166 3.37077L430.433 5.56702L432.628 4.29899C435.253 2.78168 438.611 3.68213 440.127 6.31019C441.643 8.93824 440.744 12.2987 438.118 13.816L435.923 15.084L437.19 17.2803Z" stroke="url(#paint12_linear_12_692)" stroke-width="2" mask="url(#path-1-inside-1_12_692)"/>
<path d="M472.022 17.2803C473.538 19.9083 472.639 23.2688 470.013 24.7861C467.387 26.3034 464.029 25.403 462.513 22.7749L461.246 20.5787L459.052 21.8467C456.426 23.364 453.068 22.4635 451.552 19.8355C450.036 17.2074 450.936 13.847 453.562 12.3297L455.756 11.0617L454.489 8.86543C452.973 6.23737 453.873 2.8769 456.499 1.3596C459.124 -0.157711 462.482 0.742712 463.998 3.37077L465.265 5.56702L467.46 4.29899C470.085 2.78168 473.443 3.68213 474.959 6.31019C476.475 8.93824 475.576 12.2987 472.95 13.816L470.755 15.084L472.022 17.2803Z" stroke="url(#paint13_linear_12_692)" stroke-width="2" mask="url(#path-1-inside-1_12_692)"/>
<path d="M506.854 17.2803C508.37 19.9083 507.471 23.2688 504.845 24.7861C502.219 26.3034 498.861 25.403 497.345 22.7749L496.078 20.5787L493.884 21.8467C491.258 23.364 487.9 22.4635 486.384 19.8355C484.868 17.2074 485.768 13.847 488.394 12.3297L490.588 11.0617L489.321 8.86543C487.805 6.23737 488.705 2.8769 491.331 1.3596C493.956 -0.157711 497.314 0.742712 498.83 3.37077L500.097 5.56702L502.292 4.29899C504.917 2.78168 508.275 3.68213 509.791 6.31019C511.307 8.93824 510.408 12.2987 507.782 13.816L505.587 15.084L506.854 17.2803Z" stroke="url(#paint14_linear_12_692)" stroke-width="2" mask="url(#path-1-inside-1_12_692)"/>
<path d="M541.686 17.2803C543.202 19.9083 542.302 23.2688 539.677 24.7861C537.051 26.3034 533.693 25.403 532.177 22.7749L530.91 20.5787L528.716 21.8467C526.09 23.364 522.732 22.4635 521.216 19.8355C519.7 17.2074 520.6 13.847 523.226 12.3297L525.42 11.0617L524.153 8.86543C522.637 6.23737 523.537 2.8769 526.163 1.3596C528.788 -0.157711 532.146 0.742712 533.662 3.37077L534.929 5.56702L537.124 4.29899C539.749 2.78168 543.107 3.68213 544.623 6.31019C546.139 8.93824 545.24 12.2987 542.614 13.816L540.419 15.084L541.686 17.2803Z" stroke="url(#paint15_linear_12_692)" stroke-width="2" mask="url(#path-1-inside-1_12_692)"/>
<path d="M576.518 17.2803C578.034 19.9083 577.134 23.2688 574.509 24.7861C571.883 26.3034 568.525 25.403 567.009 22.7749L565.742 20.5787L563.548 21.8467C560.922 23.364 557.564 22.4635 556.048 19.8355C554.532 17.2074 555.432 13.847 558.057 12.3297L560.252 11.0617L558.985 8.86543C557.469 6.23737 558.369 2.8769 560.995 1.3596C563.62 -0.157711 566.978 0.742712 568.494 3.37077L569.761 5.56702L571.956 4.29899C574.581 2.78168 577.939 3.68213 579.455 6.31019C580.971 8.93824 580.071 12.2987 577.446 13.816L575.251 15.084L576.518 17.2803Z" stroke="url(#paint16_linear_12_692)" stroke-width="2" mask="url(#path-1-inside-1_12_692)"/>
<path d="M611.35 17.2803C612.866 19.9083 611.966 23.2688 609.341 24.7861C606.715 26.3034 603.357 25.403 601.841 22.7749L600.574 20.5787L598.38 21.8467C595.754 23.364 592.396 22.4635 590.88 19.8355C589.364 17.2074 590.264 13.847 592.889 12.3297L595.084 11.0617L593.817 8.86543C592.301 6.23737 593.201 2.8769 595.826 1.3596C598.452 -0.157711 601.81 0.742712 603.326 3.37077L604.593 5.56702L606.787 4.29899C609.413 2.78168 612.771 3.68213 614.287 6.31019C615.803 8.93824 614.903 12.2987 612.278 13.816L610.083 15.084L611.35 17.2803Z" stroke="url(#paint17_linear_12_692)" stroke-width="2" mask="url(#path-1-inside-1_12_692)"/>
<path d="M646.182 17.2803C647.698 19.9083 646.798 23.2688 644.173 24.7861C641.547 26.3034 638.189 25.403 636.673 22.7749L635.406 20.5787L633.212 21.8467C630.586 23.364 627.228 22.4635 625.712 19.8355C624.196 17.2074 625.096 13.847 627.721 12.3297L629.916 11.0617L628.649 8.86543C627.133 6.23737 628.033 2.8769 630.658 1.3596C633.284 -0.157711 636.642 0.742712 638.158 3.37077L639.425 5.56702L641.619 4.29899C644.245 2.78168 647.603 3.68213 649.119 6.31019C650.635 8.93824 649.735 12.2987 647.11 13.816L644.915 15.084L646.182 17.2803Z" stroke="url(#paint18_linear_12_692)" stroke-width="2" mask="url(#path-1-inside-1_12_692)"/>
<path d="M681.014 17.2803C682.53 19.9083 681.63 23.2688 679.005 24.7861C676.379 26.3034 673.021 25.403 671.505 22.7749L670.238 20.5787L668.044 21.8467C665.418 23.364 662.06 22.4635 660.544 19.8355C659.028 17.2074 659.928 13.847 662.553 12.3297L664.748 11.0617L663.481 8.86543C661.965 6.23737 662.865 2.8769 665.49 1.3596C668.116 -0.157711 671.474 0.742712 672.99 3.37077L674.257 5.56702L676.451 4.29899C679.077 2.78168 682.435 3.68213 683.951 6.31019C685.467 8.93824 684.567 12.2987 681.942 13.816L679.747 15.084L681.014 17.2803Z" stroke="url(#paint19_linear_12_692)" stroke-width="2" mask="url(#path-1-inside-1_12_692)"/>
<path d="M715.846 17.2803C717.362 19.9083 716.462 23.2688 713.836 24.7861C711.211 26.3034 707.853 25.403 706.337 22.7749L705.07 20.5787L702.875 21.8467C700.25 23.364 696.892 22.4635 695.376 19.8355C693.86 17.2074 694.76 13.847 697.385 12.3297L699.58 11.0617L698.313 8.86543C696.797 6.23737 697.697 2.8769 700.322 1.3596C702.948 -0.157711 706.306 0.742712 707.822 3.37077L709.089 5.56702L711.283 4.29899C713.909 2.78168 717.267 3.68213 718.783 6.31019C720.299 8.93824 719.399 12.2987 716.773 13.816L714.579 15.084L715.846 17.2803Z" stroke="url(#paint20_linear_12_692)" stroke-width="2" mask="url(#path-1-inside-1_12_692)"/>
<path d="M750.678 17.2803C752.194 19.9083 751.294 23.2688 748.668 24.7861C746.043 26.3034 742.685 25.403 741.169 22.7749L739.902 20.5787L737.707 21.8467C735.082 23.364 731.724 22.4635 730.208 19.8355C728.692 17.2074 729.591 13.847 732.217 12.3297L734.412 11.0617L733.145 8.86543C731.629 6.23737 732.529 2.8769 735.154 1.3596C737.78 -0.157711 741.138 0.742712 742.654 3.37077L743.921 5.56702L746.115 4.29899C748.741 2.78168 752.099 3.68213 753.615 6.31019C755.131 8.93824 754.231 12.2987 751.605 13.816L749.411 15.084L750.678 17.2803Z" stroke="url(#paint21_linear_12_692)" stroke-width="2" mask="url(#path-1-inside-1_12_692)"/>
<path d="M785.51 17.2803C787.026 19.9083 786.126 23.2688 783.5 24.7861C780.875 26.3034 777.517 25.403 776.001 22.7749L774.734 20.5787L772.539 21.8467C769.914 23.364 766.556 22.4635 765.04 19.8355C763.524 17.2074 764.423 13.847 767.049 12.3297L769.244 11.0617L767.977 8.86543C766.461 6.23737 767.36 2.8769 769.986 1.3596C772.612 -0.157711 775.97 0.742712 777.486 3.37077L778.753 5.56702L780.947 4.29899C783.573 2.78168 786.931 3.68213 788.447 6.31019C789.963 8.93824 789.063 12.2987 786.437 13.816L784.243 15.084L785.51 17.2803Z" stroke="url(#paint22_linear_12_692)" stroke-width="2" mask="url(#path-1-inside-1_12_692)"/>
<path d="M820.342 17.2803C821.858 19.9083 820.958 23.2688 818.332 24.7861C815.707 26.3034 812.349 25.403 810.833 22.7749L809.566 20.5787L807.371 21.8467C804.746 23.364 801.388 22.4635 799.872 19.8355C798.356 17.2074 799.255 13.847 801.881 12.3297L804.076 11.0617L802.809 8.86543C801.293 6.23737 802.192 2.8769 804.818 1.3596C807.444 -0.157711 810.802 0.742712 812.318 3.37077L813.585 5.56702L815.779 4.29899C818.405 2.78168 821.763 3.68213 823.279 6.31019C824.795 8.93824 823.895 12.2987 821.269 13.816L819.075 15.084L820.342 17.2803Z" stroke="url(#paint23_linear_12_692)" stroke-width="2" mask="url(#path-1-inside-1_12_692)"/>
<path d="M855.174 17.2803C856.69 19.9083 855.79 23.2688 853.164 24.7861C850.539 26.3034 847.181 25.403 845.665 22.7749L844.398 20.5787L842.203 21.8467C839.578 23.364 836.22 22.4635 834.704 19.8355C833.188 17.2074 834.087 13.847 836.713 12.3297L838.908 11.0617L837.641 8.86543C836.125 6.23737 837.024 2.8769 839.65 1.3596C842.276 -0.157711 845.634 0.742712 847.15 3.37077L848.417 5.56702L850.611 4.29899C853.237 2.78168 856.595 3.68213 858.111 6.31019C859.627 8.93824 858.727 12.2987 856.101 13.816L853.907 15.084L855.174 17.2803Z" stroke="url(#paint24_linear_12_692)" stroke-width="2" mask="url(#path-1-inside-1_12_692)"/>
<path d="M889.384 16.6578C890.9 19.2858 890 22.6463 887.374 24.1636C884.749 25.6809 881.391 24.7805 879.875 22.1524L878.608 19.9562L876.413 21.2242C873.787 22.7415 870.43 21.841 868.914 19.213C867.398 16.5849 868.297 13.2244 870.923 11.7071L873.118 10.4392L871.851 8.24293C870.335 5.61487 871.234 2.25437 873.86 0.737065C876.486 -0.780243 879.844 0.120184 881.36 2.74824L882.627 4.9445L884.821 3.67649C887.447 2.15918 890.805 3.05964 892.321 5.68769C893.837 8.31575 892.937 11.6762 890.311 13.1935L888.117 14.4615L889.384 16.6578Z" stroke="url(#paint25_linear_12_692)" stroke-width="2" mask="url(#path-1-inside-1_12_692)"/>
<path d="M924.216 16.6578C925.732 19.2858 924.832 22.6463 922.206 24.1636C919.58 25.6809 916.223 24.7805 914.707 22.1524L913.44 19.9562L911.245 21.2242C908.62 22.7415 905.262 21.841 903.746 19.213C902.23 16.5849 903.129 13.2244 905.755 11.7071L907.95 10.4392L906.683 8.24293C905.167 5.61487 906.066 2.25437 908.692 0.737065C911.318 -0.780243 914.676 0.120184 916.192 2.74824L917.459 4.9445L919.653 3.67649C922.279 2.15918 925.637 3.05964 927.153 5.68769C928.669 8.31575 927.769 11.6762 925.143 13.1935L922.949 14.4615L924.216 16.6578Z" stroke="url(#paint26_linear_12_692)" stroke-width="2" mask="url(#path-1-inside-1_12_692)"/>
<path d="M959.048 16.6578C960.564 19.2858 959.664 22.6463 957.038 24.1636C954.412 25.6809 951.055 24.7805 949.539 22.1524L948.272 19.9562L946.077 21.2242C943.451 22.7415 940.094 21.841 938.578 19.213C937.062 16.5849 937.961 13.2244 940.587 11.7071L942.782 10.4392L941.515 8.24293C939.999 5.61487 940.898 2.25437 943.524 0.737065C946.15 -0.780243 949.508 0.120184 951.024 2.74824L952.291 4.9445L954.485 3.67649C957.111 2.15918 960.469 3.05964 961.985 5.68769C963.501 8.31575 962.601 11.6762 959.975 13.1935L957.781 14.4615L959.048 16.6578Z" stroke="url(#paint27_linear_12_692)" stroke-width="2" mask="url(#path-1-inside-1_12_692)"/>
<path d="M993.88 16.6578C995.396 19.2858 994.496 22.6463 991.87 24.1636C989.244 25.6809 985.887 24.7805 984.371 22.1524L983.104 19.9562L980.909 21.2242C978.283 22.7415 974.926 21.841 973.41 19.213C971.894 16.5849 972.793 13.2244 975.419 11.7071L977.614 10.4392L976.347 8.24293C974.831 5.61487 975.73 2.25437 978.356 0.737065C980.982 -0.780243 984.34 0.120184 985.856 2.74824L987.123 4.9445L989.317 3.67649C991.943 2.15918 995.301 3.05964 996.817 5.68769C998.333 8.31575 997.433 11.6762 994.807 13.1935L992.613 14.4615L993.88 16.6578Z" stroke="url(#paint28_linear_12_692)" stroke-width="2" mask="url(#path-1-inside-1_12_692)"/>
<path d="M1028.71 16.6578C1030.23 19.2858 1029.33 22.6463 1026.7 24.1636C1024.08 25.6809 1020.72 24.7805 1019.2 22.1524L1017.94 19.9562L1015.74 21.2242C1013.12 22.7415 1009.76 21.841 1008.24 19.213C1006.73 16.5849 1007.63 13.2244 1010.25 11.7071L1012.45 10.4392L1011.18 8.24293C1009.66 5.61487 1010.56 2.25437 1013.19 0.737065C1015.81 -0.780243 1019.17 0.120184 1020.69 2.74824L1021.95 4.9445L1024.15 3.67649C1026.78 2.15918 1030.13 3.05964 1031.65 5.68769C1033.16 8.31575 1032.27 11.6762 1029.64 13.1935L1027.44 14.4615L1028.71 16.6578Z" stroke="url(#paint29_linear_12_692)" stroke-width="2" mask="url(#path-1-inside-1_12_692)"/>
<path d="M1063.54 16.6578C1065.06 19.2858 1064.16 22.6463 1061.53 24.1636C1058.91 25.6809 1055.55 24.7805 1054.03 22.1524L1052.77 19.9562L1050.57 21.2242C1047.95 22.7415 1044.59 21.841 1043.07 19.213C1041.56 16.5849 1042.46 13.2244 1045.08 11.7071L1047.28 10.4392L1046.01 8.24293C1044.49 5.61487 1045.39 2.25437 1048.02 0.737065C1050.65 -0.780243 1054 0.120184 1055.52 2.74824L1056.79 4.9445L1058.98 3.67649C1061.61 2.15918 1064.96 3.05964 1066.48 5.68769C1068 8.31575 1067.1 11.6762 1064.47 13.1935L1062.28 14.4615L1063.54 16.6578Z" stroke="url(#paint30_linear_12_692)" stroke-width="2" mask="url(#path-1-inside-1_12_692)"/>
<path d="M1098.38 16.6578C1099.89 19.2858 1098.99 22.6463 1096.37 24.1636C1093.74 25.6809 1090.38 24.7805 1088.87 22.1524L1087.6 19.9562L1085.41 21.2242C1082.78 22.7415 1079.42 21.841 1077.91 19.213C1076.39 16.5849 1077.29 13.2244 1079.92 11.7071L1082.11 10.4392L1080.84 8.24293C1079.33 5.61487 1080.23 2.25437 1082.85 0.737065C1085.48 -0.780243 1088.84 0.120184 1090.35 2.74824L1091.62 4.9445L1093.81 3.67649C1096.44 2.15918 1099.8 3.05964 1101.31 5.68769C1102.83 8.31575 1101.93 11.6762 1099.3 13.1935L1097.11 14.4615L1098.38 16.6578Z" stroke="url(#paint31_linear_12_692)" stroke-width="2" mask="url(#path-1-inside-1_12_692)"/>
<path d="M1133.21 16.6578C1134.72 19.2858 1133.82 22.6463 1131.2 24.1636C1128.57 25.6809 1125.21 24.7805 1123.7 22.1524L1122.43 19.9562L1120.24 21.2242C1117.61 22.7415 1114.25 21.841 1112.74 19.213C1111.22 16.5849 1112.12 13.2244 1114.75 11.7071L1116.94 10.4392L1115.67 8.24293C1114.16 5.61487 1115.06 2.25437 1117.68 0.737065C1120.31 -0.780243 1123.67 0.120184 1125.18 2.74824L1126.45 4.9445L1128.65 3.67649C1131.27 2.15918 1134.63 3.05964 1136.14 5.68769C1137.66 8.31575 1136.76 11.6762 1134.14 13.1935L1131.94 14.4615L1133.21 16.6578Z" stroke="url(#paint32_linear_12_692)" stroke-width="2" mask="url(#path-1-inside-1_12_692)"/>
<path d="M1168.04 16.6578C1169.56 19.2858 1168.66 22.6463 1166.03 24.1636C1163.4 25.6809 1160.05 24.7805 1158.53 22.1524L1157.26 19.9562L1155.07 21.2242C1152.44 22.7415 1149.09 21.841 1147.57 19.213C1146.05 16.5849 1146.95 13.2244 1149.58 11.7071L1151.77 10.4392L1150.51 8.24293C1148.99 5.61487 1149.89 2.25437 1152.52 0.737065C1155.14 -0.780243 1158.5 0.120184 1160.02 2.74824L1161.28 4.9445L1163.48 3.67649C1166.1 2.15918 1169.46 3.05964 1170.98 5.68769C1172.49 8.31575 1171.59 11.6762 1168.97 13.1935L1166.77 14.4615L1168.04 16.6578Z" stroke="url(#paint33_linear_12_692)" stroke-width="2" mask="url(#path-1-inside-1_12_692)"/>
<path d="M1202.87 16.6578C1204.39 19.2858 1203.49 22.6463 1200.86 24.1636C1198.24 25.6809 1194.88 24.7805 1193.36 22.1524L1192.1 19.9562L1189.9 21.2242C1187.28 22.7415 1183.92 21.841 1182.4 19.213C1180.89 16.5849 1181.79 13.2244 1184.41 11.7071L1186.61 10.4392L1185.34 8.24293C1183.82 5.61487 1184.72 2.25437 1187.35 0.737065C1189.97 -0.780243 1193.33 0.120184 1194.85 2.74824L1196.11 4.9445L1198.31 3.67649C1200.93 2.15918 1204.29 3.05964 1205.81 5.68769C1207.32 8.31575 1206.42 11.6762 1203.8 13.1935L1201.6 14.4615L1202.87 16.6578Z" stroke="url(#paint34_linear_12_692)" stroke-width="2" mask="url(#path-1-inside-1_12_692)"/>
<path d="M1237.7 16.6578C1239.22 19.2858 1238.32 22.6463 1235.69 24.1636C1233.07 25.6809 1229.71 24.7805 1228.19 22.1524L1226.93 19.9562L1224.73 21.2242C1222.11 22.7415 1218.75 21.841 1217.23 19.213C1215.72 16.5849 1216.62 13.2244 1219.24 11.7071L1221.44 10.4392L1220.17 8.24293C1218.65 5.61487 1219.55 2.25437 1222.18 0.737065C1224.81 -0.780243 1228.16 0.120184 1229.68 2.74824L1230.95 4.9445L1233.14 3.67649C1235.77 2.15918 1239.12 3.05964 1240.64 5.68769C1242.16 8.31575 1241.26 11.6762 1238.63 13.1935L1236.44 14.4615L1237.7 16.6578Z" stroke="url(#paint35_linear_12_692)" stroke-width="2" mask="url(#path-1-inside-1_12_692)"/>
<path d="M1272.54 16.6578C1274.05 19.2858 1273.15 22.6463 1270.53 24.1636C1267.9 25.6809 1264.54 24.7805 1263.03 22.1524L1261.76 19.9562L1259.57 21.2242C1256.94 22.7415 1253.58 21.841 1252.07 19.213C1250.55 16.5849 1251.45 13.2244 1254.07 11.7071L1256.27 10.4392L1255 8.24293C1253.49 5.61487 1254.39 2.25437 1257.01 0.737065C1259.64 -0.780243 1263 0.120184 1264.51 2.74824L1265.78 4.9445L1267.97 3.67649C1270.6 2.15918 1273.96 3.05964 1275.47 5.68769C1276.99 8.31575 1276.09 11.6762 1273.46 13.1935L1271.27 14.4615L1272.54 16.6578Z" stroke="url(#paint36_linear_12_692)" stroke-width="2" mask="url(#path-1-inside-1_12_692)"/>
<path d="M1307.37 16.6578C1308.88 19.2858 1307.98 22.6463 1305.36 24.1636C1302.73 25.6809 1299.37 24.7805 1297.86 22.1524L1296.59 19.9562L1294.4 21.2242C1291.77 22.7415 1288.41 21.841 1286.9 19.213C1285.38 16.5849 1286.28 13.2244 1288.91 11.7071L1291.1 10.4392L1289.83 8.24293C1288.32 5.61487 1289.22 2.25437 1291.84 0.737065C1294.47 -0.780243 1297.83 0.120184 1299.34 2.74824L1300.61 4.9445L1302.8 3.67649C1305.43 2.15918 1308.79 3.05964 1310.3 5.68769C1311.82 8.31575 1310.92 11.6762 1308.29 13.1935L1306.1 14.4615L1307.37 16.6578Z" stroke="url(#paint37_linear_12_692)" stroke-width="2" mask="url(#path-1-inside-1_12_692)"/>
<path d="M1342.2 16.6578C1343.72 19.2858 1342.82 22.6463 1340.19 24.1636C1337.56 25.6809 1334.21 24.7805 1332.69 22.1524L1331.42 19.9562L1329.23 21.2242C1326.6 22.7415 1323.25 21.841 1321.73 19.213C1320.21 16.5849 1321.11 13.2244 1323.74 11.7071L1325.93 10.4392L1324.67 8.24293C1323.15 5.61487 1324.05 2.25437 1326.68 0.737065C1329.3 -0.780243 1332.66 0.120184 1334.18 2.74824L1335.44 4.9445L1337.64 3.67649C1340.26 2.15918 1343.62 3.05964 1345.14 5.68769C1346.65 8.31575 1345.75 11.6762 1343.13 13.1935L1340.93 14.4615L1342.2 16.6578Z" stroke="url(#paint38_linear_12_692)" stroke-width="2" mask="url(#path-1-inside-1_12_692)"/>
<path d="M1377.03 16.6578C1378.55 19.2858 1377.65 22.6463 1375.02 24.1636C1372.4 25.6809 1369.04 24.7805 1367.52 22.1524L1366.26 19.9562L1364.06 21.2242C1361.44 22.7415 1358.08 21.841 1356.56 19.213C1355.05 16.5849 1355.95 13.2244 1358.57 11.7071L1360.77 10.4392L1359.5 8.24293C1357.98 5.61487 1358.88 2.25437 1361.51 0.737065C1364.13 -0.780243 1367.49 0.120184 1369.01 2.74824L1370.27 4.9445L1372.47 3.67649C1375.09 2.15918 1378.45 3.05964 1379.97 5.68769C1381.48 8.31575 1380.58 11.6762 1377.96 13.1935L1375.76 14.4615L1377.03 16.6578Z" stroke="url(#paint39_linear_12_692)" stroke-width="2" mask="url(#path-1-inside-1_12_692)"/>
<path d="M1411.86 16.6578C1413.38 19.2858 1412.48 22.6463 1409.85 24.1636C1407.23 25.6809 1403.87 24.7805 1402.35 22.1524L1401.09 19.9562L1398.89 21.2242C1396.27 22.7415 1392.91 21.841 1391.39 19.213C1389.88 16.5849 1390.78 13.2244 1393.4 11.7071L1395.6 10.4392L1394.33 8.24293C1392.81 5.61487 1393.71 2.25437 1396.34 0.737065C1398.97 -0.780243 1402.32 0.120184 1403.84 2.74824L1405.11 4.9445L1407.3 3.67649C1409.93 2.15918 1413.28 3.05964 1414.8 5.68769C1416.32 8.31575 1415.42 11.6762 1412.79 13.1935L1410.6 14.4615L1411.86 16.6578Z" stroke="url(#paint40_linear_12_692)" stroke-width="2" mask="url(#path-1-inside-1_12_692)"/>
<path d="M1446.7 16.6578C1448.21 19.2858 1447.31 22.6463 1444.69 24.1636C1442.06 25.6809 1438.7 24.7805 1437.19 22.1524L1435.92 19.9562L1433.72 21.2242C1431.1 22.7415 1427.74 21.841 1426.23 19.213C1424.71 16.5849 1425.61 13.2244 1428.23 11.7071L1430.43 10.4392L1429.16 8.24293C1427.65 5.61487 1428.55 2.25437 1431.17 0.737065C1433.8 -0.780243 1437.16 0.120184 1438.67 2.74824L1439.94 4.9445L1442.13 3.67649C1444.76 2.15918 1448.12 3.05964 1449.63 5.68769C1451.15 8.31575 1450.25 11.6762 1447.62 13.1935L1445.43 14.4615L1446.7 16.6578Z" stroke="url(#paint41_linear_12_692)" stroke-width="2" mask="url(#path-1-inside-1_12_692)"/>
<path d="M1481.53 16.6578C1483.04 19.2858 1482.14 22.6463 1479.52 24.1636C1476.89 25.6809 1473.53 24.7805 1472.02 22.1524L1470.75 19.9562L1468.56 21.2242C1465.93 22.7415 1462.57 21.841 1461.06 19.213C1459.54 16.5849 1460.44 13.2244 1463.07 11.7071L1465.26 10.4392L1463.99 8.24293C1462.48 5.61487 1463.38 2.25437 1466 0.737065C1468.63 -0.780243 1471.99 0.120184 1473.5 2.74824L1474.77 4.9445L1476.96 3.67649C1479.59 2.15918 1482.95 3.05964 1484.46 5.68769C1485.98 8.31575 1485.08 11.6762 1482.45 13.1935L1480.26 14.4615L1481.53 16.6578Z" stroke="url(#paint42_linear_12_692)" stroke-width="2" mask="url(#path-1-inside-1_12_692)"/>
<path d="M1516.36 16.6578C1517.88 19.2858 1516.98 22.6463 1514.35 24.1636C1511.72 25.6809 1508.37 24.7805 1506.85 22.1524L1505.58 19.9562L1503.39 21.2242C1500.76 22.7415 1497.41 21.841 1495.89 19.213C1494.37 16.5849 1495.27 13.2244 1497.9 11.7071L1500.09 10.4392L1498.83 8.24293C1497.31 5.61487 1498.21 2.25437 1500.84 0.737065C1503.46 -0.780243 1506.82 0.120184 1508.34 2.74824L1509.6 4.9445L1511.8 3.67649C1514.42 2.15918 1517.78 3.05964 1519.3 5.68769C1520.81 8.31575 1519.91 11.6762 1517.29 13.1935L1515.09 14.4615L1516.36 16.6578Z" stroke="url(#paint43_linear_12_692)" stroke-width="2" mask="url(#path-1-inside-1_12_692)"/>
<path d="M1551.19 16.6578C1552.71 19.2858 1551.81 22.6463 1549.18 24.1636C1546.56 25.6809 1543.2 24.7805 1541.68 22.1524L1540.42 19.9562L1538.22 21.2242C1535.59 22.7415 1532.24 21.841 1530.72 19.213C1529.21 16.5849 1530.1 13.2244 1532.73 11.7071L1534.93 10.4392L1533.66 8.24293C1532.14 5.61487 1533.04 2.25437 1535.67 0.737065C1538.29 -0.780243 1541.65 0.120184 1543.17 2.74824L1544.43 4.9445L1546.63 3.67649C1549.25 2.15918 1552.61 3.05964 1554.13 5.68769C1555.64 8.31575 1554.74 11.6762 1552.12 13.1935L1549.92 14.4615L1551.19 16.6578Z" stroke="url(#paint44_linear_12_692)" stroke-width="2" mask="url(#path-1-inside-1_12_692)"/>
<path d="M1586.02 16.6578C1587.54 19.2858 1586.64 22.6463 1584.01 24.1636C1581.39 25.6809 1578.03 24.7805 1576.51 22.1524L1575.25 19.9562L1573.05 21.2242C1570.43 22.7415 1567.07 21.841 1565.55 19.213C1564.04 16.5849 1564.94 13.2244 1567.56 11.7071L1569.76 10.4392L1568.49 8.24293C1566.97 5.61487 1567.87 2.25437 1570.5 0.737065C1573.13 -0.780243 1576.48 0.120184 1578 2.74824L1579.27 4.9445L1581.46 3.67649C1584.09 2.15918 1587.44 3.05964 1588.96 5.68769C1590.48 8.31575 1589.58 11.6762 1586.95 13.1935L1584.76 14.4615L1586.02 16.6578Z" stroke="url(#paint45_linear_12_692)" stroke-width="2" mask="url(#path-1-inside-1_12_692)"/>
<path d="M1620.86 16.6578C1622.37 19.2858 1621.47 22.6463 1618.85 24.1636C1616.22 25.6809 1612.86 24.7805 1611.35 22.1524L1610.08 19.9562L1607.88 21.2242C1605.26 22.7415 1601.9 21.841 1600.39 19.213C1598.87 16.5849 1599.77 13.2244 1602.39 11.7071L1604.59 10.4392L1603.32 8.24293C1601.81 5.61487 1602.71 2.25437 1605.33 0.737065C1607.96 -0.780243 1611.32 0.120184 1612.83 2.74824L1614.1 4.9445L1616.29 3.67649C1618.92 2.15918 1622.28 3.05964 1623.79 5.68769C1625.31 8.31575 1624.41 11.6762 1621.78 13.1935L1619.59 14.4615L1620.86 16.6578Z" stroke="url(#paint46_linear_12_692)" stroke-width="2" mask="url(#path-1-inside-1_12_692)"/>
<path d="M1655.69 16.6578C1657.2 19.2858 1656.3 22.6463 1653.68 24.1636C1651.05 25.6809 1647.69 24.7805 1646.18 22.1524L1644.91 19.9562L1642.72 21.2242C1640.09 22.7415 1636.73 21.841 1635.22 19.213C1633.7 16.5849 1634.6 13.2244 1637.23 11.7071L1639.42 10.4392L1638.15 8.24293C1636.64 5.61487 1637.54 2.25437 1640.16 0.737065C1642.79 -0.780243 1646.15 0.120184 1647.66 2.74824L1648.93 4.9445L1651.12 3.67649C1653.75 2.15918 1657.11 3.05964 1658.62 5.68769C1660.14 8.31575 1659.24 11.6762 1656.61 13.1935L1654.42 14.4615L1655.69 16.6578Z" stroke="url(#paint47_linear_12_692)" stroke-width="2" mask="url(#path-1-inside-1_12_692)"/>
<path d="M1690.52 16.6578C1692.04 19.2858 1691.14 22.6463 1688.51 24.1636C1685.88 25.6809 1682.53 24.7805 1681.01 22.1524L1679.74 19.9562L1677.55 21.2242C1674.92 22.7415 1671.57 21.841 1670.05 19.213C1668.53 16.5849 1669.43 13.2244 1672.06 11.7071L1674.25 10.4392L1672.99 8.24293C1671.47 5.61487 1672.37 2.25437 1675 0.737065C1677.62 -0.780243 1680.98 0.120184 1682.5 2.74824L1683.76 4.9445L1685.96 3.67649C1688.58 2.15918 1691.94 3.05964 1693.46 5.68769C1694.97 8.31575 1694.07 11.6762 1691.45 13.1935L1689.25 14.4615L1690.52 16.6578Z" stroke="url(#paint48_linear_12_692)" stroke-width="2" mask="url(#path-1-inside-1_12_692)"/>
<path d="M1725.35 16.6578C1726.87 19.2858 1725.97 22.6463 1723.34 24.1636C1720.72 25.6809 1717.36 24.7805 1715.84 22.1524L1714.58 19.9562L1712.38 21.2242C1709.75 22.7415 1706.4 21.841 1704.88 19.213C1703.37 16.5849 1704.26 13.2244 1706.89 11.7071L1709.09 10.4392L1707.82 8.24293C1706.3 5.61487 1707.2 2.25437 1709.83 0.737065C1712.45 -0.780243 1715.81 0.120184 1717.33 2.74824L1718.59 4.9445L1720.79 3.67649C1723.41 2.15918 1726.77 3.05964 1728.29 5.68769C1729.8 8.31575 1728.9 11.6762 1726.28 13.1935L1724.08 14.4615L1725.35 16.6578Z" stroke="url(#paint49_linear_12_692)" stroke-width="2" mask="url(#path-1-inside-1_12_692)"/>
</g>
<defs>
<linearGradient id="paint0_linear_12_692" x1="10.6721" y1="13" x2="1711.42" y2="-61.3622" gradientUnits="userSpaceOnUse">
<stop stop-color="#006859"/>
<stop offset="0.21875" stop-color="#159B7B"/>
<stop offset="0.578125" stop-color="#46D29E"/>
<stop offset="0.78125" stop-color="#76E7A1"/>
<stop offset="1" stop-color="#A1DA75"/>
</linearGradient>
<linearGradient id="paint1_linear_12_692" x1="10.6721" y1="13" x2="1711.42" y2="-61.3622" gradientUnits="userSpaceOnUse">
<stop stop-color="#006859"/>
<stop offset="0.21875" stop-color="#159B7B"/>
<stop offset="0.578125" stop-color="#46D29E"/>
<stop offset="0.78125" stop-color="#76E7A1"/>
<stop offset="1" stop-color="#A1DA75"/>
</linearGradient>
<linearGradient id="paint2_linear_12_692" x1="10.6721" y1="13" x2="1711.42" y2="-61.3622" gradientUnits="userSpaceOnUse">
<stop stop-color="#006859"/>
<stop offset="0.21875" stop-color="#159B7B"/>
<stop offset="0.578125" stop-color="#46D29E"/>
<stop offset="0.78125" stop-color="#76E7A1"/>
<stop offset="1" stop-color="#A1DA75"/>
</linearGradient>
<linearGradient id="paint3_linear_12_692" x1="10.6721" y1="13" x2="1711.42" y2="-61.3622" gradientUnits="userSpaceOnUse">
<stop stop-color="#006859"/>
<stop offset="0.21875" stop-color="#159B7B"/>
<stop offset="0.578125" stop-color="#46D29E"/>
<stop offset="0.78125" stop-color="#76E7A1"/>
<stop offset="1" stop-color="#A1DA75"/>
</linearGradient>
<linearGradient id="paint4_linear_12_692" x1="10.6721" y1="13" x2="1711.42" y2="-61.3622" gradientUnits="userSpaceOnUse">
<stop stop-color="#006859"/>
<stop offset="0.21875" stop-color="#159B7B"/>
<stop offset="0.578125" stop-color="#46D29E"/>
<stop offset="0.78125" stop-color="#76E7A1"/>
<stop offset="1" stop-color="#A1DA75"/>
</linearGradient>
<linearGradient id="paint5_linear_12_692" x1="10.6721" y1="13" x2="1711.42" y2="-61.3622" gradientUnits="userSpaceOnUse">
<stop stop-color="#006859"/>
<stop offset="0.21875" stop-color="#159B7B"/>
<stop offset="0.578125" stop-color="#46D29E"/>
<stop offset="0.78125" stop-color="#76E7A1"/>
<stop offset="1" stop-color="#A1DA75"/>
</linearGradient>
<linearGradient id="paint6_linear_12_692" x1="10.6721" y1="13" x2="1711.42" y2="-61.3622" gradientUnits="userSpaceOnUse">
<stop stop-color="#006859"/>
<stop offset="0.21875" stop-color="#159B7B"/>
<stop offset="0.578125" stop-color="#46D29E"/>
<stop offset="0.78125" stop-color="#76E7A1"/>
<stop offset="1" stop-color="#A1DA75"/>
</linearGradient>
<linearGradient id="paint7_linear_12_692" x1="10.6721" y1="13" x2="1711.42" y2="-61.3622" gradientUnits="userSpaceOnUse">
<stop stop-color="#006859"/>
<stop offset="0.21875" stop-color="#159B7B"/>
<stop offset="0.578125" stop-color="#46D29E"/>
<stop offset="0.78125" stop-color="#76E7A1"/>
<stop offset="1" stop-color="#A1DA75"/>
</linearGradient>
<linearGradient id="paint8_linear_12_692" x1="10.6721" y1="13" x2="1711.42" y2="-61.3622" gradientUnits="userSpaceOnUse">
<stop stop-color="#006859"/>
<stop offset="0.21875" stop-color="#159B7B"/>
<stop offset="0.578125" stop-color="#46D29E"/>
<stop offset="0.78125" stop-color="#76E7A1"/>
<stop offset="1" stop-color="#A1DA75"/>
</linearGradient>
<linearGradient id="paint9_linear_12_692" x1="10.6721" y1="13" x2="1711.42" y2="-61.3622" gradientUnits="userSpaceOnUse">
<stop stop-color="#006859"/>
<stop offset="0.21875" stop-color="#159B7B"/>
<stop offset="0.578125" stop-color="#46D29E"/>
<stop offset="0.78125" stop-color="#76E7A1"/>
<stop offset="1" stop-color="#A1DA75"/>
</linearGradient>
<linearGradient id="paint10_linear_12_692" x1="10.6721" y1="13" x2="1711.42" y2="-61.3622" gradientUnits="userSpaceOnUse">
<stop stop-color="#006859"/>
<stop offset="0.21875" stop-color="#159B7B"/>
<stop offset="0.578125" stop-color="#46D29E"/>
<stop offset="0.78125" stop-color="#76E7A1"/>
<stop offset="1" stop-color="#A1DA75"/>
</linearGradient>
<linearGradient id="paint11_linear_12_692" x1="10.6721" y1="13" x2="1711.42" y2="-61.3622" gradientUnits="userSpaceOnUse">
<stop stop-color="#006859"/>
<stop offset="0.21875" stop-color="#159B7B"/>
<stop offset="0.578125" stop-color="#46D29E"/>
<stop offset="0.78125" stop-color="#76E7A1"/>
<stop offset="1" stop-color="#A1DA75"/>
</linearGradient>
<linearGradient id="paint12_linear_12_692" x1="10.6721" y1="13" x2="1711.42" y2="-61.3622" gradientUnits="userSpaceOnUse">
<stop stop-color="#006859"/>
<stop offset="0.21875" stop-color="#159B7B"/>
<stop offset="0.578125" stop-color="#46D29E"/>
<stop offset="0.78125" stop-color="#76E7A1"/>
<stop offset="1" stop-color="#A1DA75"/>
</linearGradient>
<linearGradient id="paint13_linear_12_692" x1="10.6721" y1="13" x2="1711.42" y2="-61.3622" gradientUnits="userSpaceOnUse">
<stop stop-color="#006859"/>
<stop offset="0.21875" stop-color="#159B7B"/>
<stop offset="0.578125" stop-color="#46D29E"/>
<stop offset="0.78125" stop-color="#76E7A1"/>
<stop offset="1" stop-color="#A1DA75"/>
</linearGradient>
<linearGradient id="paint14_linear_12_692" x1="10.6721" y1="13" x2="1711.42" y2="-61.3622" gradientUnits="userSpaceOnUse">
<stop stop-color="#006859"/>
<stop offset="0.21875" stop-color="#159B7B"/>
<stop offset="0.578125" stop-color="#46D29E"/>
<stop offset="0.78125" stop-color="#76E7A1"/>
<stop offset="1" stop-color="#A1DA75"/>
</linearGradient>
<linearGradient id="paint15_linear_12_692" x1="10.6721" y1="13" x2="1711.42" y2="-61.3622" gradientUnits="userSpaceOnUse">
<stop stop-color="#006859"/>
<stop offset="0.21875" stop-color="#159B7B"/>
<stop offset="0.578125" stop-color="#46D29E"/>
<stop offset="0.78125" stop-color="#76E7A1"/>
<stop offset="1" stop-color="#A1DA75"/>
</linearGradient>
<linearGradient id="paint16_linear_12_692" x1="10.6721" y1="13" x2="1711.42" y2="-61.3622" gradientUnits="userSpaceOnUse">
<stop stop-color="#006859"/>
<stop offset="0.21875" stop-color="#159B7B"/>
<stop offset="0.578125" stop-color="#46D29E"/>
<stop offset="0.78125" stop-color="#76E7A1"/>
<stop offset="1" stop-color="#A1DA75"/>
</linearGradient>
<linearGradient id="paint17_linear_12_692" x1="10.6721" y1="13" x2="1711.42" y2="-61.3622" gradientUnits="userSpaceOnUse">
<stop stop-color="#006859"/>
<stop offset="0.21875" stop-color="#159B7B"/>
<stop offset="0.578125" stop-color="#46D29E"/>
<stop offset="0.78125" stop-color="#76E7A1"/>
<stop offset="1" stop-color="#A1DA75"/>
</linearGradient>
<linearGradient id="paint18_linear_12_692" x1="10.6721" y1="13" x2="1711.42" y2="-61.3622" gradientUnits="userSpaceOnUse">
<stop stop-color="#006859"/>
<stop offset="0.21875" stop-color="#159B7B"/>
<stop offset="0.578125" stop-color="#46D29E"/>
<stop offset="0.78125" stop-color="#76E7A1"/>
<stop offset="1" stop-color="#A1DA75"/>
</linearGradient>
<linearGradient id="paint19_linear_12_692" x1="10.6721" y1="13" x2="1711.42" y2="-61.3622" gradientUnits="userSpaceOnUse">
<stop stop-color="#006859"/>
<stop offset="0.21875" stop-color="#159B7B"/>
<stop offset="0.578125" stop-color="#46D29E"/>
<stop offset="0.78125" stop-color="#76E7A1"/>
<stop offset="1" stop-color="#A1DA75"/>
</linearGradient>
<linearGradient id="paint20_linear_12_692" x1="10.6721" y1="13" x2="1711.42" y2="-61.3622" gradientUnits="userSpaceOnUse">
<stop stop-color="#006859"/>
<stop offset="0.21875" stop-color="#159B7B"/>
<stop offset="0.578125" stop-color="#46D29E"/>
<stop offset="0.78125" stop-color="#76E7A1"/>
<stop offset="1" stop-color="#A1DA75"/>
</linearGradient>
<linearGradient id="paint21_linear_12_692" x1="10.6721" y1="13" x2="1711.42" y2="-61.3622" gradientUnits="userSpaceOnUse">
<stop stop-color="#006859"/>
<stop offset="0.21875" stop-color="#159B7B"/>
<stop offset="0.578125" stop-color="#46D29E"/>
<stop offset="0.78125" stop-color="#76E7A1"/>
<stop offset="1" stop-color="#A1DA75"/>
</linearGradient>
<linearGradient id="paint22_linear_12_692" x1="10.6721" y1="13" x2="1711.42" y2="-61.3622" gradientUnits="userSpaceOnUse">
<stop stop-color="#006859"/>
<stop offset="0.21875" stop-color="#159B7B"/>
<stop offset="0.578125" stop-color="#46D29E"/>
<stop offset="0.78125" stop-color="#76E7A1"/>
<stop offset="1" stop-color="#A1DA75"/>
</linearGradient>
<linearGradient id="paint23_linear_12_692" x1="10.6721" y1="13" x2="1711.42" y2="-61.3622" gradientUnits="userSpaceOnUse">
<stop stop-color="#006859"/>
<stop offset="0.21875" stop-color="#159B7B"/>
<stop offset="0.578125" stop-color="#46D29E"/>
<stop offset="0.78125" stop-color="#76E7A1"/>
<stop offset="1" stop-color="#A1DA75"/>
</linearGradient>
<linearGradient id="paint24_linear_12_692" x1="10.6721" y1="13" x2="1711.42" y2="-61.3622" gradientUnits="userSpaceOnUse">
<stop stop-color="#006859"/>
<stop offset="0.21875" stop-color="#159B7B"/>
<stop offset="0.578125" stop-color="#46D29E"/>
<stop offset="0.78125" stop-color="#76E7A1"/>
<stop offset="1" stop-color="#A1DA75"/>
</linearGradient>
<linearGradient id="paint25_linear_12_692" x1="10.6721" y1="13" x2="1711.42" y2="-61.3622" gradientUnits="userSpaceOnUse">
<stop stop-color="#006859"/>
<stop offset="0.21875" stop-color="#159B7B"/>
<stop offset="0.578125" stop-color="#46D29E"/>
<stop offset="0.78125" stop-color="#76E7A1"/>
<stop offset="1" stop-color="#A1DA75"/>
</linearGradient>
<linearGradient id="paint26_linear_12_692" x1="10.6721" y1="13" x2="1711.42" y2="-61.3622" gradientUnits="userSpaceOnUse">
<stop stop-color="#006859"/>
<stop offset="0.21875" stop-color="#159B7B"/>
<stop offset="0.578125" stop-color="#46D29E"/>
<stop offset="0.78125" stop-color="#76E7A1"/>
<stop offset="1" stop-color="#A1DA75"/>
</linearGradient>
<linearGradient id="paint27_linear_12_692" x1="10.6721" y1="13" x2="1711.42" y2="-61.3622" gradientUnits="userSpaceOnUse">
<stop stop-color="#006859"/>
<stop offset="0.21875" stop-color="#159B7B"/>
<stop offset="0.578125" stop-color="#46D29E"/>
<stop offset="0.78125" stop-color="#76E7A1"/>
<stop offset="1" stop-color="#A1DA75"/>
</linearGradient>
<linearGradient id="paint28_linear_12_692" x1="10.6721" y1="13" x2="1711.42" y2="-61.3622" gradientUnits="userSpaceOnUse">
<stop stop-color="#006859"/>
<stop offset="0.21875" stop-color="#159B7B"/>
<stop offset="0.578125" stop-color="#46D29E"/>
<stop offset="0.78125" stop-color="#76E7A1"/>
<stop offset="1" stop-color="#A1DA75"/>
</linearGradient>
<linearGradient id="paint29_linear_12_692" x1="10.6721" y1="13" x2="1711.42" y2="-61.3622" gradientUnits="userSpaceOnUse">
<stop stop-color="#006859"/>
<stop offset="0.21875" stop-color="#159B7B"/>
<stop offset="0.578125" stop-color="#46D29E"/>
<stop offset="0.78125" stop-color="#76E7A1"/>
<stop offset="1" stop-color="#A1DA75"/>
</linearGradient>
<linearGradient id="paint30_linear_12_692" x1="10.6721" y1="13" x2="1711.42" y2="-61.3622" gradientUnits="userSpaceOnUse">
<stop stop-color="#006859"/>
<stop offset="0.21875" stop-color="#159B7B"/>
<stop offset="0.578125" stop-color="#46D29E"/>
<stop offset="0.78125" stop-color="#76E7A1"/>
<stop offset="1" stop-color="#A1DA75"/>
</linearGradient>
<linearGradient id="paint31_linear_12_692" x1="10.6721" y1="13" x2="1711.42" y2="-61.3622" gradientUnits="userSpaceOnUse">
<stop stop-color="#006859"/>
<stop offset="0.21875" stop-color="#159B7B"/>
<stop offset="0.578125" stop-color="#46D29E"/>
<stop offset="0.78125" stop-color="#76E7A1"/>
<stop offset="1" stop-color="#A1DA75"/>
</linearGradient>
<linearGradient id="paint32_linear_12_692" x1="10.6721" y1="13" x2="1711.42" y2="-61.3622" gradientUnits="userSpaceOnUse">
<stop stop-color="#006859"/>
<stop offset="0.21875" stop-color="#159B7B"/>
<stop offset="0.578125" stop-color="#46D29E"/>
<stop offset="0.78125" stop-color="#76E7A1"/>
<stop offset="1" stop-color="#A1DA75"/>
</linearGradient>
<linearGradient id="paint33_linear_12_692" x1="10.6721" y1="13" x2="1711.42" y2="-61.3622" gradientUnits="userSpaceOnUse">
<stop stop-color="#006859"/>
<stop offset="0.21875" stop-color="#159B7B"/>
<stop offset="0.578125" stop-color="#46D29E"/>
<stop offset="0.78125" stop-color="#76E7A1"/>
<stop offset="1" stop-color="#A1DA75"/>
</linearGradient>
<linearGradient id="paint34_linear_12_692" x1="10.6721" y1="13" x2="1711.42" y2="-61.3622" gradientUnits="userSpaceOnUse">
<stop stop-color="#006859"/>
<stop offset="0.21875" stop-color="#159B7B"/>
<stop offset="0.578125" stop-color="#46D29E"/>
<stop offset="0.78125" stop-color="#76E7A1"/>
<stop offset="1" stop-color="#A1DA75"/>
</linearGradient>
<linearGradient id="paint35_linear_12_692" x1="10.6721" y1="13" x2="1711.42" y2="-61.3622" gradientUnits="userSpaceOnUse">
<stop stop-color="#006859"/>
<stop offset="0.21875" stop-color="#159B7B"/>
<stop offset="0.578125" stop-color="#46D29E"/>
<stop offset="0.78125" stop-color="#76E7A1"/>
<stop offset="1" stop-color="#A1DA75"/>
</linearGradient>
<linearGradient id="paint36_linear_12_692" x1="10.6721" y1="13" x2="1711.42" y2="-61.3622" gradientUnits="userSpaceOnUse">
<stop stop-color="#006859"/>
<stop offset="0.21875" stop-color="#159B7B"/>
<stop offset="0.578125" stop-color="#46D29E"/>
<stop offset="0.78125" stop-color="#76E7A1"/>
<stop offset="1" stop-color="#A1DA75"/>
</linearGradient>
<linearGradient id="paint37_linear_12_692" x1="10.6721" y1="13" x2="1711.42" y2="-61.3622" gradientUnits="userSpaceOnUse">
<stop stop-color="#006859"/>
<stop offset="0.21875" stop-color="#159B7B"/>
<stop offset="0.578125" stop-color="#46D29E"/>
<stop offset="0.78125" stop-color="#76E7A1"/>
<stop offset="1" stop-color="#A1DA75"/>
</linearGradient>
<linearGradient id="paint38_linear_12_692" x1="10.6721" y1="13" x2="1711.42" y2="-61.3622" gradientUnits="userSpaceOnUse">
<stop stop-color="#006859"/>
<stop offset="0.21875" stop-color="#159B7B"/>
<stop offset="0.578125" stop-color="#46D29E"/>
<stop offset="0.78125" stop-color="#76E7A1"/>
<stop offset="1" stop-color="#A1DA75"/>
</linearGradient>
<linearGradient id="paint39_linear_12_692" x1="10.6721" y1="13" x2="1711.42" y2="-61.3622" gradientUnits="userSpaceOnUse">
<stop stop-color="#006859"/>
<stop offset="0.21875" stop-color="#159B7B"/>
<stop offset="0.578125" stop-color="#46D29E"/>
<stop offset="0.78125" stop-color="#76E7A1"/>
<stop offset="1" stop-color="#A1DA75"/>
</linearGradient>
<linearGradient id="paint40_linear_12_692" x1="10.6721" y1="13" x2="1711.42" y2="-61.3622" gradientUnits="userSpaceOnUse">
<stop stop-color="#006859"/>
<stop offset="0.21875" stop-color="#159B7B"/>
<stop offset="0.578125" stop-color="#46D29E"/>
<stop offset="0.78125" stop-color="#76E7A1"/>
<stop offset="1" stop-color="#A1DA75"/>
</linearGradient>
<linearGradient id="paint41_linear_12_692" x1="10.6721" y1="13" x2="1711.42" y2="-61.3622" gradientUnits="userSpaceOnUse">
<stop stop-color="#006859"/>
<stop offset="0.21875" stop-color="#159B7B"/>
<stop offset="0.578125" stop-color="#46D29E"/>
<stop offset="0.78125" stop-color="#76E7A1"/>
<stop offset="1" stop-color="#A1DA75"/>
</linearGradient>
<linearGradient id="paint42_linear_12_692" x1="10.6721" y1="13" x2="1711.42" y2="-61.3622" gradientUnits="userSpaceOnUse">
<stop stop-color="#006859"/>
<stop offset="0.21875" stop-color="#159B7B"/>
<stop offset="0.578125" stop-color="#46D29E"/>
<stop offset="0.78125" stop-color="#76E7A1"/>
<stop offset="1" stop-color="#A1DA75"/>
</linearGradient>
<linearGradient id="paint43_linear_12_692" x1="10.6721" y1="13" x2="1711.42" y2="-61.3622" gradientUnits="userSpaceOnUse">
<stop stop-color="#006859"/>
<stop offset="0.21875" stop-color="#159B7B"/>
<stop offset="0.578125" stop-color="#46D29E"/>
<stop offset="0.78125" stop-color="#76E7A1"/>
<stop offset="1" stop-color="#A1DA75"/>
</linearGradient>
<linearGradient id="paint44_linear_12_692" x1="10.6721" y1="13" x2="1711.42" y2="-61.3622" gradientUnits="userSpaceOnUse">
<stop stop-color="#006859"/>
<stop offset="0.21875" stop-color="#159B7B"/>
<stop offset="0.578125" stop-color="#46D29E"/>
<stop offset="0.78125" stop-color="#76E7A1"/>
<stop offset="1" stop-color="#A1DA75"/>
</linearGradient>
<linearGradient id="paint45_linear_12_692" x1="10.6721" y1="13" x2="1711.42" y2="-61.3622" gradientUnits="userSpaceOnUse">
<stop stop-color="#006859"/>
<stop offset="0.21875" stop-color="#159B7B"/>
<stop offset="0.578125" stop-color="#46D29E"/>
<stop offset="0.78125" stop-color="#76E7A1"/>
<stop offset="1" stop-color="#A1DA75"/>
</linearGradient>
<linearGradient id="paint46_linear_12_692" x1="10.6721" y1="13" x2="1711.42" y2="-61.3622" gradientUnits="userSpaceOnUse">
<stop stop-color="#006859"/>
<stop offset="0.21875" stop-color="#159B7B"/>
<stop offset="0.578125" stop-color="#46D29E"/>
<stop offset="0.78125" stop-color="#76E7A1"/>
<stop offset="1" stop-color="#A1DA75"/>
</linearGradient>
<linearGradient id="paint47_linear_12_692" x1="10.6721" y1="13" x2="1711.42" y2="-61.3622" gradientUnits="userSpaceOnUse">
<stop stop-color="#006859"/>
<stop offset="0.21875" stop-color="#159B7B"/>
<stop offset="0.578125" stop-color="#46D29E"/>
<stop offset="0.78125" stop-color="#76E7A1"/>
<stop offset="1" stop-color="#A1DA75"/>
</linearGradient>
<linearGradient id="paint48_linear_12_692" x1="10.6721" y1="13" x2="1711.42" y2="-61.3622" gradientUnits="userSpaceOnUse">
<stop stop-color="#006859"/>
<stop offset="0.21875" stop-color="#159B7B"/>
<stop offset="0.578125" stop-color="#46D29E"/>
<stop offset="0.78125" stop-color="#76E7A1"/>
<stop offset="1" stop-color="#A1DA75"/>
</linearGradient>
<linearGradient id="paint49_linear_12_692" x1="10.6721" y1="13" x2="1711.42" y2="-61.3622" gradientUnits="userSpaceOnUse">
<stop stop-color="#006859"/>
<stop offset="0.21875" stop-color="#159B7B"/>
<stop offset="0.578125" stop-color="#46D29E"/>
<stop offset="0.78125" stop-color="#76E7A1"/>
<stop offset="1" stop-color="#A1DA75"/>
</linearGradient>
</defs>
</svg>
