<svg width="48" height="56" viewBox="0 0 48 56" fill="none" xmlns="http://www.w3.org/2000/svg">
<path d="M24.4931 2.13003L24 1.85054L23.5069 2.13003L12.6319 8.29398L12.625 8.2979L12.6181 8.30192L1.8425 14.638L1.3539 14.9253L1.3494 15.4921L1.25003 27.9921L1.24997 28L1.25003 28.0079L1.3494 40.5079L1.3539 41.0747L1.8425 41.362L12.6181 47.6981L12.625 47.7021L12.6319 47.706L23.5069 53.87L24 54.1495L24.4931 53.87L35.3681 47.706L35.375 47.7021L35.3819 47.6981L46.1575 41.362L46.6461 41.0747L46.6506 40.5079L46.75 28.0079L46.75 28L46.75 27.9921L46.6506 15.4921L46.6461 14.9253L46.1575 14.638L35.3819 8.30192L35.375 8.2979L35.3681 8.29398L24.4931 2.13003Z" stroke="#5FF1D0" stroke-width="2"/>
</svg>
